<svg preserveAspectRatio="none" width="100%" height="100%" overflow="visible" style="display: block;" viewBox="0 0 31.6787 26.4792" fill="none" xmlns="http://www.w3.org/2000/svg" class="size-full">
<path id="Subtract" fill-rule="evenodd" clip-rule="evenodd" d="M14.5171 0.741797C15.1215 -0.247273 16.5572 -0.247258 17.1616 0.741797L31.4487 24.1207C32.0799 25.1535 31.3375 26.4788 30.1272 26.4792H1.55148C0.341314 26.4787 -0.401178 25.1534 0.229946 24.1207L14.5171 0.741797ZM15.8401 20.2787C15.198 20.2787 14.6775 20.7992 14.6775 21.4413C14.6775 22.0834 15.198 22.6039 15.8401 22.6039C16.4818 22.6035 17.0027 22.0831 17.0027 21.4413C17.0027 20.7995 16.4818 20.2791 15.8401 20.2787ZM15.8386 6.71519C15.1969 6.7156 14.6775 7.23595 14.6775 7.87778V17.1785C14.6775 17.8206 15.198 18.3411 15.8401 18.3411C16.4818 18.3407 17.0027 17.8203 17.0027 17.1785V7.87778C17.0027 7.2357 16.4807 6.71519 15.8386 6.71519Z" fill="currentColor"/>
</svg>
