<svg preserveAspectRatio="none" width="100%" height="100%" overflow="visible" style="display: block;" viewBox="0 0 30.9864 30.9864" fill="none" xmlns="http://www.w3.org/2000/svg" class="size-full">
<path id="Subtract" fill-rule="evenodd" clip-rule="evenodd" d="M15.4932 0C24.0498 0 30.9864 6.93653 30.9864 15.4932C30.9864 24.0498 24.0498 30.9864 15.4932 30.9864C6.93653 30.9864 0 24.0498 0 15.4932C0 6.93653 6.93653 0 15.4932 0ZM15.4932 3.2923C14.7445 3.2923 14.1375 3.89925 14.1375 4.64795V15.0302C14.1375 15.8137 14.5674 16.5347 15.2571 16.9063L24.9207 22.1095C25.5799 22.4645 26.4025 22.2179 26.7575 21.5588C27.1124 20.8997 26.8658 20.077 26.2068 19.722L16.8488 14.6837V4.64795C16.8488 3.89925 16.2419 3.2923 15.4932 3.2923Z" fill="currentColor"/>
</svg>
