<svg preserveAspectRatio="none" width="100%" height="100%" overflow="visible" style="display: block;" viewBox="0 0 31.6598 31.6598" fill="none" xmlns="http://www.w3.org/2000/svg" class="size-full">
<path id="Subtract" fill-rule="evenodd" clip-rule="evenodd" d="M15.8299 0C24.5725 0 31.6598 7.08729 31.6598 15.8299C31.6598 24.5725 24.5725 31.6598 15.8299 31.6598C7.08729 31.6598 0 24.5725 0 15.8299C0 7.08729 7.08729 0 15.8299 0ZM15.8299 23.7449C15.0649 23.7449 14.4448 24.365 14.4448 25.13C14.4448 25.895 15.0649 26.5151 15.8299 26.5151C16.5949 26.5151 17.215 25.895 17.215 25.13C17.215 24.365 16.5949 23.7449 15.8299 23.7449ZM15.8299 4.15535C15.0649 4.15535 14.4448 4.77549 14.4448 5.54047V19.7874C14.4448 20.5524 15.0649 21.1725 15.8299 21.1725C16.5949 21.1725 17.215 20.5524 17.215 19.7874V5.54047C17.215 4.77549 16.5949 4.15535 15.8299 4.15535Z" fill="currentColor"/>
</svg>
