<svg preserveAspectRatio="none" width="100%" height="100%" overflow="visible" style="display: block;" viewBox="0 0 28.4938 22.1619" fill="none" xmlns="http://www.w3.org/2000/svg" class="size-full">
<path id="Subtract" fill-rule="evenodd" clip-rule="evenodd" d="M19.6003 0C20.1999 0 20.7482 0.338729 21.0164 0.874973L21.7244 2.29101C21.9925 2.82725 22.5409 3.16598 23.1404 3.16598H23.7449C26.3676 3.16598 28.4938 5.29217 28.4938 7.91495V17.4129C28.4938 20.0357 26.3676 22.1619 23.7449 22.1619H4.74897C2.12619 22.1619 0 20.0357 0 17.4129V7.91495C0 5.29217 2.12619 3.16598 4.74897 3.16598H5.35341C5.95298 3.16598 6.50129 2.82725 6.76945 2.29101L7.47747 0.874973C7.74563 0.338729 8.29394 0 8.8935 0H19.6003ZM14.2469 6.33196C11.187 6.33196 8.70645 8.81251 8.70645 11.8724C8.70645 14.9323 11.187 17.4129 14.2469 17.4129C17.3068 17.4129 19.7874 14.9323 19.7874 11.8724C19.7874 8.81251 17.3068 6.33196 14.2469 6.33196ZM23.7449 4.74897C22.8706 4.74897 22.1619 5.4577 22.1619 6.33196C22.1619 7.20622 22.8706 7.91495 23.7449 7.91495C24.6191 7.91495 25.3279 7.20622 25.3279 6.33196C25.3279 5.4577 24.6191 4.74897 23.7449 4.74897Z" fill="currentColor"/>
</svg>
