<svg preserveAspectRatio="none" width="100%" height="100%" overflow="visible" style="display: block;" viewBox="0 0 30.6195 18.6014" fill="none" xmlns="http://www.w3.org/2000/svg" class="size-full">
<path id="Subtract" fill-rule="evenodd" clip-rule="evenodd" d="M15.3098 0C24.3797 0 29.1171 6.49859 30.4279 8.6316C30.6834 9.0473 30.6834 9.55409 30.4279 9.96979C29.1171 12.1028 24.3797 18.6014 15.3098 18.6014C6.23977 18.6014 1.50239 12.1028 0.191584 9.96979C-0.0638613 9.55409 -0.0638614 9.0473 0.191584 8.6316C1.50239 6.49859 6.23977 0 15.3098 0ZM15.3098 3.10023C11.8853 3.10023 9.10929 5.87627 9.10929 9.3007C9.10929 12.7251 11.8853 15.5012 15.3098 15.5012C18.7342 15.5012 21.5102 12.7251 21.5102 9.3007C21.5102 5.87627 18.7342 3.10023 15.3098 3.10023Z" fill="currentColor"/>
</svg>
