<svg preserveAspectRatio="none" width="100%" height="100%" overflow="visible" style="display: block;" viewBox="0 0 30.4982 30.4982" fill="none" xmlns="http://www.w3.org/2000/svg" class="size-full">
<g id="Subtract">
<path d="M13.4681 22.2422C13.5557 22.1796 13.6397 22.1083 13.7153 22.0248L13.5961 22.1425C13.5553 22.1788 13.5117 22.2111 13.4681 22.2422Z" fill="currentColor"/>
<path d="M12.8247 19.599C12.7724 19.6568 12.7037 19.6879 12.6326 19.6958C12.667 19.6918 12.7007 19.6831 12.7324 19.6675L12.8247 19.599Z" fill="currentColor"/>
<path d="M7.9343 14.5641C7.99472 14.61 8.05214 14.6626 8.10407 14.7219L12.3705 19.596L12.4182 19.6407C12.4469 19.6618 12.479 19.6756 12.512 19.6853C12.459 19.6695 12.41 19.6411 12.3705 19.596L8.10407 14.7219C8.07814 14.6923 8.05034 14.6648 8.02216 14.6385L7.9343 14.5641Z" fill="currentColor"/>
<path fill-rule="evenodd" clip-rule="evenodd" d="M15.2491 0C23.671 0 30.4982 6.82726 30.4982 15.2491C30.4982 23.671 23.671 30.4982 15.2491 30.4982C6.82726 30.4982 0 23.671 0 15.2491C0 6.82726 6.82726 0 15.2491 0ZM24.5743 8.10853C23.9889 7.57886 23.1049 7.5877 22.5311 8.10555L22.418 8.21873L12.5984 19.2788L8.39147 14.4703C7.83701 13.837 6.87322 13.7737 6.23962 14.3273C5.60607 14.882 5.54078 15.8471 6.09517 16.4806L11.1509 22.2571C11.9022 23.1144 13.2333 23.1249 13.9982 22.2795L14.0012 22.278L24.683 10.2589L24.6815 10.2574C25.244 9.63327 25.1971 8.67308 24.5743 8.10853Z" fill="currentColor"/>
</g>
</svg>
