<svg preserveAspectRatio="none" width="100%" height="100%" overflow="visible" style="display: block;" viewBox="0 0 30.424 30.4857" fill="none" xmlns="http://www.w3.org/2000/svg" class="size-full">
<path id="Subtract" fill-rule="evenodd" clip-rule="evenodd" d="M18.0983 0C18.9398 0.000291691 19.6225 0.682627 19.6225 1.52429V2.91014C19.6225 3.53457 20.0085 4.08828 20.5678 4.36595C20.862 4.51205 21.1495 4.66997 21.4297 4.83783C21.9372 5.14174 22.5701 5.1813 23.0849 4.88993L25.0037 3.80328C25.736 3.38821 26.6758 3.64043 27.1026 4.36595L30.2152 9.65779C30.6419 10.3834 30.3938 11.3088 29.6614 11.7239L28.1327 12.5903C27.5695 12.9091 27.2791 13.5475 27.3378 14.1919C27.3695 14.5402 27.3854 14.8926 27.3854 15.2488C27.3854 15.8416 27.6708 16.4121 28.1862 16.7046L29.6614 17.5412C30.3938 17.9563 30.6419 18.8817 30.2152 19.6073L27.1026 24.8992C26.6758 25.6247 25.736 25.8769 25.0037 25.4618L24.0867 24.9409C23.5268 24.6235 22.8328 24.7012 22.3109 25.0778C21.7624 25.4736 21.1783 25.8259 20.5663 26.1302C20.0076 26.4083 19.6225 26.9619 19.6225 27.586V28.9615C19.6225 29.8031 18.9398 30.4855 18.0983 30.4857H11.8299C10.9883 30.4855 10.3056 29.8032 10.3056 28.9615V27.5875C10.3056 26.9631 9.92106 26.4095 9.36189 26.1317C8.821 25.8631 8.3026 25.5568 7.81081 25.2162C7.29111 24.8563 6.61011 24.7883 6.06026 25.1001L5.42017 25.4633C4.68783 25.8782 3.74802 25.6262 3.3213 24.9007L0.20872 19.6088C-0.217855 18.8833 0.0303621 17.9578 0.762465 17.5427L1.73896 16.989C2.26536 16.6902 2.55667 16.1085 2.54427 15.5034C2.54253 15.4188 2.5413 15.3338 2.5413 15.2488C2.5413 14.8125 2.56545 14.3812 2.61126 13.9568C2.68184 13.3018 2.39234 12.6458 1.81934 12.3208L0.762465 11.7224C0.0303621 11.3073 -0.217855 10.3818 0.20872 9.6563L3.3213 4.36446C3.74801 3.63892 4.68784 3.38694 5.42017 3.80179L7.08588 4.74553C7.59027 5.03102 8.20976 4.9976 8.71287 4.70981C8.92507 4.58845 9.14192 4.47359 9.36189 4.36446C9.92119 4.08685 10.3056 3.53308 10.3056 2.90865V1.52429C10.3056 0.682581 10.9883 0.000217037 11.8299 0H18.0983ZM15.2506 9.1487C11.8833 9.1487 9.15349 11.8785 9.15349 15.2458C9.15349 18.6132 11.8833 21.343 15.2506 21.343C18.6179 21.3428 21.3478 18.6131 21.3478 15.2458C21.3478 11.8786 18.6179 9.14886 15.2506 9.1487Z" fill="currentColor"/>
</svg>
