<svg preserveAspectRatio="none" width="100%" height="100%" overflow="visible" style="display: block;" viewBox="0 0 26.3577 31.009" fill="none" xmlns="http://www.w3.org/2000/svg" class="size-full">
<path id="Subtract" fill-rule="evenodd" clip-rule="evenodd" d="M13.1788 0C17.2972 0 26.3577 4.0958 26.3577 6.55329C26.3577 23.7598 16.263 29.6725 13.7435 30.8801C13.3848 31.052 12.9729 31.052 12.6142 30.8801C10.0947 29.6725 0 23.7598 0 6.55329C0 4.0958 9.88413 1.30196e-06 13.1788 0ZM20.378 7.58524C19.9821 7.19151 19.3405 7.19151 18.9446 7.58524L13.7612 12.7402C13.4397 13.0596 12.9181 13.0595 12.5965 12.7402L7.4131 7.58524C7.0172 7.19151 6.37561 7.19151 5.97971 7.58524C5.58381 7.97896 5.58381 8.61704 5.97971 9.01077L11.1631 14.1657C11.4843 14.4857 11.4846 15.0043 11.1631 15.3241L5.97971 20.479C5.58395 20.8728 5.58386 21.5109 5.97971 21.9045C6.37559 22.2979 7.01731 22.298 7.4131 21.9045L12.5965 16.7496C12.9181 16.4297 13.4395 16.4297 13.7612 16.7496L19.1585 22.1173C19.5544 22.5106 20.1962 22.5107 20.5919 22.1173C20.9877 21.7238 20.9874 21.0856 20.5919 20.6918L15.1946 15.3241C14.873 15.0043 14.8733 14.4856 15.1946 14.1657L20.378 9.01077C20.7737 8.61716 20.7735 7.97899 20.378 7.58524Z" fill="currentColor"/>
</svg>
