<svg preserveAspectRatio="none" width="100%" height="100%" overflow="visible" style="display: block;" viewBox="0 0 31.653 31.653" fill="none" xmlns="http://www.w3.org/2000/svg" class="size-full">
<g id="Subtract">
<path d="M14.3524 29.6747C14.3524 30.7672 13.4667 31.653 12.3741 31.653H1.97831C0.88572 31.653 0 30.7672 0 29.6747V19.2885C0 18.1959 0.88572 17.3102 1.97831 17.3102H12.3741C13.4667 17.3102 14.3524 18.1959 14.3524 19.2885V29.6747Z" fill="currentColor"/>
<path d="M31.653 29.6747C31.653 30.7672 30.7672 31.653 29.6747 31.653H19.2982C18.2056 31.653 17.3199 30.7672 17.3199 29.6747V19.2885C17.3199 18.1959 18.2056 17.3102 19.2982 17.3102H29.6747C30.7672 17.3102 31.653 18.1959 31.653 19.2885V29.6747Z" fill="currentColor"/>
<path d="M14.3524 12.3644C14.3524 13.457 13.4667 14.3428 12.3741 14.3428H1.97831C0.88572 14.3428 0 13.457 0 12.3644V1.97831C0 0.88572 0.88572 0 1.97831 0H12.3741C13.4667 0 14.3524 0.88572 14.3524 1.97831V12.3644Z" fill="currentColor"/>
<path d="M31.653 12.3644C31.653 13.457 30.7672 14.3428 29.6747 14.3428H19.2982C18.2056 14.3428 17.3199 13.457 17.3199 12.3644V1.97831C17.3199 0.88572 18.2056 0 19.2982 0H29.6747C30.7672 0 31.653 0.88572 31.653 1.97831V12.3644Z" fill="currentColor"/>
</g>
</svg>
