<svg preserveAspectRatio="none" width="100%" height="100%" overflow="visible" style="display: block;" viewBox="0 0 26.9108 31.6598" fill="none" xmlns="http://www.w3.org/2000/svg" class="size-full">
<path id="Union" d="M22.8508 31.3058C22.6789 31.4584 22.4714 31.5593 22.2499 31.5982C20.699 31.8072 14.014 32.0342 6.28721 22.2968C-1.43956 12.5593 -0.0673167 5.63705 0.396648 4.05823C0.471277 3.8344 0.601345 3.63584 0.773281 3.48328L4.21988 0.425088C5.03281 -0.296228 6.26368 -0.0730163 6.80288 0.893503L10.3414 7.2362C10.7679 8.0008 10.6092 8.97942 9.9661 9.55004L8.23361 11.0873C7.64749 11.6997 6.3265 13.8707 10.2339 18.7949C14.1412 23.719 16.3925 22.7203 17.0646 22.2163L18.7971 20.679C19.4402 20.1084 20.3792 20.1131 21.0172 20.6901L26.3097 25.4764C27.1162 26.2057 27.1103 27.5263 26.2974 28.2476L22.8508 31.3058Z" fill="currentColor"/>
</svg>
