<svg preserveAspectRatio="none" width="100%" height="100%" overflow="visible" style="display: block;" viewBox="0 0 23.2347 30.9796" fill="none" xmlns="http://www.w3.org/2000/svg" class="size-full">
<path id="Union (Stroke)" d="M13.2487 0.736399C15.2661 -1.04088 18.4513 0.611077 18.1794 3.42733L17.332 12.1767H20.2186C22.8996 12.1767 24.2432 15.527 22.3476 17.486L10.1793 30.06C8.17948 32.1264 4.77455 30.4592 5.05592 27.5513L5.90328 18.8019H3.01507C0.333931 18.8019 -1.00828 15.4532 0.887683 13.4943L13.0577 0.920294L13.2487 0.736399ZM20.5746 15.6538C20.8903 15.3273 20.6654 14.7681 20.2186 14.7681H15.1165L15.0071 14.7562C14.765 14.7011 14.5914 14.4659 14.6169 14.1995L15.683 3.17089C15.7299 2.68635 15.1641 2.40842 14.8308 2.75249L2.66078 15.3265C2.38424 15.6122 2.52036 16.0757 2.85833 16.1869L3.01507 16.2105H8.12046C8.41684 16.2109 8.64778 16.476 8.61843 16.7808L7.55229 27.8094C7.50832 28.2638 8.00408 28.5368 8.34087 28.2852L8.40618 28.2278L20.5746 15.6538Z" fill="currentColor"/>
</svg>
