<svg preserveAspectRatio="none" width="100%" height="100%" overflow="visible" style="display: block;" viewBox="0 0 28.5 26.9167" fill="none" xmlns="http://www.w3.org/2000/svg" class="size-full">
<g id="Vector">
<path d="M27.9812 4.19744C28.673 3.51841 28.6729 2.41764 27.9811 1.7387L26.7283 0.509252C26.0363 -0.169807 24.9144 -0.169742 24.2225 0.509397L13.2083 11.3207C12.8194 11.7024 12.5265 12.1676 12.3525 12.6796L11.2981 15.7841C11.0672 16.4637 11.7261 17.1103 12.4186 16.8837L15.5817 15.8491C16.1037 15.6783 16.578 15.3906 16.967 15.0087L27.9812 4.19744Z" fill="currentColor"/>
<path d="M19.4892 2.57492C19.5348 2.57492 19.5569 2.62907 19.5247 2.6607L11.9558 10.0934C11.3727 10.6658 10.9329 11.3632 10.672 12.131L9.61656 15.2348C8.92407 17.2735 10.9009 19.2132 12.9784 18.5339L16.1412 17.4999C16.9242 17.2437 17.6374 16.8111 18.2209 16.2383L24.1995 10.3697C24.4227 10.1506 24.8044 10.3058 24.8044 10.6156V21.7006C24.8044 24.5813 22.4247 26.9167 19.4892 26.9167H5.31524C2.37971 26.9167 2.85369e-08 24.5813 0 21.7006V7.79101C2.28295e-07 4.91024 2.37971 2.57492 5.31524 2.57492H19.4892Z" fill="currentColor"/>
<path d="M21.4829 3.19933C21.5868 3.09735 21.7446 3.06789 21.8759 3.13275C23.4343 3.90301 24.5525 5.40169 24.7652 7.17487C24.7774 7.2768 24.7393 7.37787 24.6653 7.45046L16.9665 15.0107L16.6586 15.2789C16.3368 15.5286 15.9717 15.7232 15.5806 15.8512L12.4186 16.8837C11.7261 17.1103 11.0672 16.4637 11.2981 15.7841L12.3525 12.6796C12.483 12.2962 12.6809 11.9387 12.9351 11.6233L13.2085 11.3227L21.4829 3.19933Z" fill="currentColor"/>
</g>
</svg>
