<svg preserveAspectRatio="none" width="100%" height="100%" overflow="visible" style="display: block;" viewBox="0 0 26.1248 26.1248" fill="none" xmlns="http://www.w3.org/2000/svg" class="size-full">
<path id="Vector" d="M0.347811 0.347811C0.811559 -0.115937 1.56326 -0.115937 2.02701 0.347811L12.5026 10.8234C12.8118 11.1326 13.313 11.1326 13.6222 10.8234L24.0978 0.347811C24.5616 -0.115937 25.3133 -0.115937 25.777 0.347811C26.2408 0.811558 26.2408 1.56326 25.777 2.02701L15.3014 12.5026C14.9922 12.8118 14.9922 13.313 15.3014 13.6222L25.777 24.0978C26.2408 24.5616 26.2408 25.3133 25.777 25.777C25.3133 26.2408 24.5616 26.2408 24.0978 25.777L13.6222 15.3014C13.313 14.9922 12.8118 14.9922 12.5026 15.3014L2.02701 25.777C1.56326 26.2408 0.811557 26.2408 0.347811 25.777C-0.115937 25.3133 -0.115937 24.5616 0.347811 24.0978L10.8234 13.6222C11.1326 13.313 11.1326 12.8118 10.8234 12.5026L0.347811 2.02701C-0.115937 1.56326 -0.115937 0.811558 0.347811 0.347811Z" fill="currentColor"/>
</svg>
