<svg preserveAspectRatio="none" width="100%" height="100%" overflow="visible" style="display: block;" viewBox="0 0 31.2228 31.2212" fill="none" xmlns="http://www.w3.org/2000/svg" class="size-full">
<g id="Vector">
<path fill-rule="evenodd" clip-rule="evenodd" d="M7.74757 24.1881C9.40701 25.2761 11.3554 25.9596 13.4527 26.0987C11.3711 25.9605 9.43643 25.2856 7.78524 24.2114C7.77277 24.2033 7.76021 24.1955 7.74757 24.1881ZM14.7851 26.1132C16.9871 26.0155 19.0332 25.3182 20.7641 24.1805C20.747 24.1901 20.7301 24.2004 20.7133 24.2113C18.9933 25.3303 16.9661 26.0163 14.7851 26.1132Z" fill="currentColor"/>
<path d="M28.5 14.25C28.5 6.37994 22.1201 0 14.25 0C6.37994 0 0 6.37994 0 14.25C0 22.0278 6.23129 28.3503 13.9739 28.4974C14.0658 28.4991 14.1578 28.5 14.25 28.5C14.3501 28.5 14.4499 28.499 14.5495 28.4969C17.8361 28.429 20.8474 27.2459 23.2257 25.3137C23.3535 25.2099 23.5396 25.2173 23.6561 25.3338L29.1958 30.8735C29.6595 31.3372 30.4113 31.3372 30.875 30.8735C31.3387 30.4098 31.3387 29.658 30.875 29.1943L25.3353 23.6545C25.2188 23.5381 25.2114 23.352 25.3152 23.2242C27.3051 20.774 28.5 17.6523 28.5 14.25ZM13.4527 26.0987C11.3554 25.9596 9.40701 25.2761 7.74757 24.1881C4.51199 22.0668 2.375 18.408 2.375 14.25C2.375 7.69162 7.69162 2.375 14.25 2.375C20.8084 2.375 26.125 7.69162 26.125 14.25C26.125 18.403 23.9931 22.058 20.7641 24.1805C19.0332 25.3182 16.9871 26.0155 14.7851 26.1132C14.6077 26.121 14.4293 26.125 14.25 26.125C13.9821 26.125 13.7162 26.1161 13.4527 26.0987Z" fill="currentColor"/>
</g>
</svg>
