<svg preserveAspectRatio="none" width="100%" height="100%" overflow="visible" style="display: block;" viewBox="0 0 31.653 22.1571" fill="none" xmlns="http://www.w3.org/2000/svg" class="size-full">
<g id="Vector">
<path d="M0 1.51071C0 0.676368 0.66429 0 1.48373 0H30.1692C30.9887 0 31.653 0.676368 31.653 1.51071C31.653 2.34505 30.9887 3.02142 30.1692 3.02142H1.48373C0.66429 3.02142 0 2.34505 0 1.51071Z" fill="currentColor"/>
<path d="M0 11.5821C0 10.7478 0.66429 10.0714 1.48373 10.0714H30.1692C30.9887 10.0714 31.653 10.7478 31.653 11.5821C31.653 12.4164 30.9887 13.0928 30.1692 13.0928H1.48373C0.66429 13.0928 0 12.4164 0 11.5821Z" fill="currentColor"/>
<path d="M0 20.6464C0 19.812 0.66429 19.1357 1.48373 19.1357H30.1692C30.9887 19.1357 31.653 19.812 31.653 20.6464C31.653 21.4807 30.9887 22.1571 30.1692 22.1571H1.48373C0.66429 22.1571 0 21.4807 0 20.6464Z" fill="currentColor"/>
</g>
</svg>
