<svg preserveAspectRatio="none" width="100%" height="100%" overflow="visible" style="display: block;" viewBox="0 0 30.4982 30.4982" fill="none" xmlns="http://www.w3.org/2000/svg" class="size-full">
<g id="Vector">
<path d="M22.7033 8.46872C23.1271 8.00049 23.8492 7.96458 24.3176 8.38831C24.7858 8.8121 24.8217 9.53424 24.398 10.0026L13.7152 22.0217C13.103 22.6983 12.0377 22.6895 11.4368 22.0028L6.38236 16.2265C5.96648 15.7512 6.01442 15.0282 6.48958 14.6122C6.96487 14.1964 7.68787 14.2443 8.10384 14.7194L12.3695 19.5932C12.4896 19.7305 12.7027 19.7323 12.8251 19.597L22.7033 8.46872Z" fill="currentColor"/>
<path d="M28.2108 15.2491C28.2108 8.09053 22.4077 2.28737 15.2491 2.28737C8.09053 2.28737 2.28737 8.09053 2.28737 15.2491C2.28737 22.4077 8.09053 28.2108 15.2491 28.2108C22.4077 28.2108 28.2108 22.4077 28.2108 15.2491ZM30.4982 15.2491C30.4982 23.671 23.671 30.4982 15.2491 30.4982C6.82726 30.4982 0 23.671 0 15.2491C0 6.82726 6.82726 0 15.2491 0C23.671 0 30.4982 6.82726 30.4982 15.2491Z" fill="currentColor"/>
</g>
</svg>
