<svg preserveAspectRatio="none" width="100%" height="100%" overflow="visible" style="display: block;" viewBox="0 0 31.216 31.2145" fill="none" xmlns="http://www.w3.org/2000/svg" class="size-full">
<g id="Vector">
<path d="M17.4129 11.0809C17.4129 12.8295 15.9954 14.2469 14.2469 14.2469C12.4984 14.2469 11.0809 12.8295 11.0809 11.0809C11.0809 9.33241 12.4984 7.91495 14.2469 7.91495C15.9954 7.91495 17.4129 9.33241 17.4129 11.0809Z" fill="currentColor"/>
<path fill-rule="evenodd" clip-rule="evenodd" d="M7.74589 24.1829C9.40498 25.2706 11.353 25.954 13.4498 26.093C11.3686 25.9549 9.43438 25.2801 7.78355 24.2061C7.77109 24.198 7.75853 24.1903 7.74589 24.1829ZM14.7819 26.1075C16.9834 26.0099 19.0291 25.3127 20.7596 24.1752C20.7425 24.1849 20.7256 24.1951 20.7088 24.206C18.9892 25.3248 16.9624 26.0107 14.7819 26.1075Z" fill="currentColor"/>
<path d="M14.2469 15.8299C17.7451 15.8299 20.7124 17.8727 21.7584 20.7049C21.8536 20.9626 21.7872 21.2506 21.5949 21.4469C19.7275 23.3527 17.1259 24.5364 14.2469 24.5364C11.3675 24.5364 8.76483 23.3531 6.89729 21.4468C6.70503 21.2506 6.63866 20.9627 6.73383 20.705C7.77984 17.8725 10.7485 15.8299 14.2469 15.8299Z" fill="currentColor"/>
<path d="M28.4938 14.2469C28.4938 6.37856 22.1153 0 14.2469 0C6.37856 0 0 6.37856 0 14.2469C0 22.0231 6.22994 28.3441 13.9709 28.4912C14.0627 28.493 14.1547 28.4938 14.2469 28.4938C14.347 28.4938 14.4468 28.4928 14.5463 28.4907C17.8323 28.4228 20.8429 27.24 23.2207 25.3083C23.3485 25.2044 23.5345 25.2118 23.651 25.3283L29.1895 30.8668C29.6531 31.3304 30.4047 31.3304 30.8683 30.8668C31.3319 30.4032 31.3319 29.6515 30.8683 29.1879L25.3298 23.6494C25.2134 23.533 25.2059 23.347 25.3097 23.2191C27.2991 20.7695 28.4938 17.6485 28.4938 14.2469ZM13.4498 26.093C11.353 25.954 9.40498 25.2706 7.74589 24.1829C4.51101 22.062 2.37449 18.404 2.37449 14.2469C2.37449 7.68995 7.68995 2.37449 14.2469 2.37449C20.8039 2.37449 26.1193 7.68995 26.1193 14.2469C26.1193 18.399 23.9879 22.0532 20.7596 24.1752C19.0291 25.3127 16.9834 26.0099 14.7819 26.1075C14.6046 26.1154 14.4262 26.1193 14.2469 26.1193C13.9791 26.1193 13.7133 26.1105 13.4498 26.093Z" fill="currentColor"/>
</g>
</svg>
