<svg preserveAspectRatio="none" width="100%" height="100%" overflow="visible" style="display: block;" viewBox="0 0 24.3986 30.4982" fill="none" xmlns="http://www.w3.org/2000/svg" class="size-full">
<g id="Vector">
<path d="M5.53781 12.56C5.6693 12.6928 5.66939 12.9082 5.538 13.0411L3.51315 15.0891C3.24207 15.3631 3.36497 15.8031 3.68593 15.9269C3.70307 15.9335 3.7211 15.9374 3.73925 15.9401L3.84558 15.9558C3.86166 15.9581 3.87789 15.9593 3.89414 15.9593H8.76061C8.8497 15.9593 8.93517 15.995 8.99825 16.0586L9.38971 16.4532C9.46129 16.5253 9.49699 16.6262 9.48694 16.7278L8.4347 27.3774C8.39049 27.8246 8.88943 28.0932 9.22839 27.8457L9.29412 27.7893L14.7106 22.3133C14.842 22.1805 15.0551 22.1805 15.1866 22.3133L16.4952 23.6359C16.6266 23.7687 16.6266 23.9841 16.4952 24.1169L11.0787 29.5929C9.06597 31.6271 5.63896 29.9859 5.92216 27.1233L6.73798 18.8843C6.7578 18.6841 6.60222 18.5103 6.40311 18.5103H3.86973C1.17164 18.5103 -0.180245 15.214 1.72693 13.2854L3.75183 11.2374C3.8832 11.1045 4.09627 11.1044 4.22775 11.2372L5.53781 12.56Z" fill="currentColor"/>
<path fill-rule="evenodd" clip-rule="evenodd" d="M17.6997 22.4476L16.3633 21.097C16.3675 21.1017 16.3718 21.1063 16.3762 21.1108L17.6849 22.4335C17.6881 22.4367 17.6964 22.4445 17.6997 22.4476C17.698 22.4461 17.7014 22.4491 17.6997 22.4476Z" fill="currentColor"/>
<path d="M14.168 0.724726C16.1984 -1.02447 19.4042 0.601508 19.1306 3.37372L18.3148 11.6127C18.295 11.8129 18.4506 11.9867 18.6497 11.9867H21.1864C23.8838 11.9876 25.2349 15.285 23.3275 17.2132L21.1368 19.4259C21.0053 19.5586 20.7923 19.5586 20.6609 19.4258L19.3523 18.1032C19.2208 17.9703 19.2208 17.7549 19.3523 17.6221L21.5429 15.4096C21.8141 15.1351 21.6889 14.6939 21.3667 14.5711C21.3507 14.565 21.334 14.5612 21.3172 14.5585L21.2124 14.5418C21.1951 14.5391 21.1775 14.5377 21.16 14.5377H16.0479L15.9394 14.526C15.6951 14.4723 15.5195 14.2406 15.5451 13.978L16.6198 3.12127C16.6668 2.64447 16.0958 2.37107 15.7603 2.70939L10.1778 8.35157C10.0464 8.48436 9.83339 8.48441 9.70195 8.35168L8.39192 7.02888C8.26038 6.89606 8.26034 6.68058 8.39185 6.54771L13.9758 0.905754L14.168 0.724726Z" fill="currentColor"/>
<path fill-rule="evenodd" clip-rule="evenodd" d="M8.51675 9.56027L7.19362 8.22313C7.19088 8.22036 7.19643 8.22579 7.19362 8.22313L8.51675 9.56027C8.51476 9.55816 8.5188 9.56234 8.51675 9.56027Z" fill="currentColor"/>
<path d="M2.15421 3.13036C1.66136 2.63225 0.862488 2.63225 0.369636 3.13036C-0.123212 3.62848 -0.123212 4.43589 0.369636 4.934L16.3633 21.097L17.6997 22.4476L22.2444 27.0403C22.7372 27.5385 23.5361 27.5385 24.0289 27.0403C24.5218 26.5422 24.5218 25.7348 24.0289 25.2367L8.51675 9.56027L7.19362 8.22313L2.15421 3.13036Z" fill="currentColor"/>
</g>
</svg>
