<svg preserveAspectRatio="none" width="100%" height="100%" overflow="visible" style="display: block;" viewBox="0 0 31.6683 20.5833" fill="none" xmlns="http://www.w3.org/2000/svg" class="size-full">
<g id="Vector">
<path d="M28.4969 5.54167C28.4969 7.72779 26.7247 9.5 24.5386 9.5C22.3524 9.5 20.5802 7.72779 20.5802 5.54167C20.5802 3.35554 22.3524 1.58333 24.5386 1.58333C26.7247 1.58333 28.4969 3.35554 28.4969 5.54167Z" fill="currentColor"/>
<path d="M16.6219 5.54167C16.6219 8.60224 14.1408 11.0833 11.0802 11.0833C8.01966 11.0833 5.53857 8.60224 5.53857 5.54167C5.53857 2.48109 8.01966 0 11.0802 0C14.1408 0 16.6219 2.48109 16.6219 5.54167Z" fill="currentColor"/>
<path d="M11.0801 12.6667C16.5347 12.6667 21.0826 15.3965 22.1142 19.0201C22.3536 19.8611 21.6247 20.5833 20.7502 20.5833H1.41009C0.535626 20.5833 -0.193348 19.8611 0.0460935 19.0201C1.0777 15.3965 5.62554 12.6667 11.0801 12.6667Z" fill="currentColor"/>
<path d="M17.5344 14.3134C17.5847 14.2177 17.7069 14.1856 17.8026 14.2358C18.4096 14.5545 18.9692 14.915 19.4729 15.3116C19.6985 15.4892 19.5667 15.8333 19.2795 15.8333H18.7312C17.8568 15.8331 17.1276 15.0875 17.5344 14.3134Z" fill="currentColor"/>
<path d="M24.5435 11.0833C27.7997 11.0835 30.5653 12.4354 31.5525 14.3134C31.9594 15.0874 31.2301 15.833 30.3557 15.8333H22.3844C22.2862 15.8333 22.1939 15.7876 22.1327 15.711C21.3343 14.7123 20.304 13.8527 19.113 13.1539C18.9193 13.0402 18.8933 12.7678 19.0769 12.6383C20.4292 11.6841 22.3767 11.0833 24.5435 11.0833Z" fill="currentColor"/>
</g>
</svg>
