<svg preserveAspectRatio="none" width="100%" height="100%" overflow="visible" style="display: block;" viewBox="0 0 28.5739 29.6642" fill="none" xmlns="http://www.w3.org/2000/svg" class="size-full">
<g id="Vector">
<path d="M21.8295 3.22021C22.0002 3.39238 21.9218 3.68491 21.6879 3.74869L17.441 4.90844C17.2055 4.97267 16.9892 4.75674 17.052 4.52099L17.2372 3.82978C17.2824 3.66092 17.1804 3.48661 17.0105 3.44581C10.7767 1.94979 4.45097 5.68761 2.78164 11.917C1.75439 15.7508 2.72791 19.6473 5.06054 22.503C5.47498 23.0104 5.47993 23.758 5.01665 24.2212C4.55288 24.6849 3.79663 24.6875 3.37346 24.1865C0.466295 20.7444 -0.765951 15.9845 0.488561 11.3026C2.49724 3.80669 10.1248 -0.68364 17.6253 1.15124C17.7951 1.19278 17.9704 1.09347 18.0156 0.924614L18.2004 0.234899C18.2637 -0.00107193 18.5591 -0.0796512 18.731 0.0938627L21.8295 3.22021Z" fill="currentColor"/>
<path d="M6.74441 26.444C6.57377 26.2719 6.65215 25.9793 6.88602 25.9155L11.133 24.7558C11.3685 24.6916 11.5847 24.9075 11.522 25.1432L11.3368 25.8345C11.2915 26.0033 11.3935 26.1776 11.5635 26.2184C17.7973 27.7144 24.123 23.9766 25.7923 17.7472C26.8196 13.9135 25.846 10.0169 23.5134 7.16123C23.099 6.65385 23.094 5.90621 23.5573 5.44299C24.0211 4.9793 24.7773 4.97675 25.2005 5.47778C28.1077 8.91984 29.3399 13.6798 28.0854 18.3617C26.0767 25.8575 18.4492 30.3479 10.9487 28.513C10.7789 28.4715 10.6036 28.5708 10.5583 28.7396L10.3735 29.4293C10.3103 29.6653 10.0149 29.7439 9.8429 29.5704L6.74441 26.444Z" fill="currentColor"/>
</g>
</svg>
