<svg preserveAspectRatio="none" width="100%" height="100%" overflow="visible" style="display: block;" viewBox="0 0 30.6194 22.477" fill="none" xmlns="http://www.w3.org/2000/svg" class="size-full">
<g id="Vector">
<path d="M25.1033 5.23092C25.2102 5.12399 25.3791 5.10974 25.5011 5.19909C28.1483 7.13757 29.7481 9.41674 30.4278 10.5226C30.6832 10.9383 30.6832 11.4451 30.4278 11.8608C29.1167 13.9941 24.3791 20.4924 15.3096 20.4924C13.7499 20.4923 12.3187 20.2986 11.0107 19.9691C10.7815 19.9113 10.7073 19.6269 10.8745 19.4597L13.147 17.1872C13.2309 17.1033 13.3552 17.0753 13.4685 17.1106C14.0503 17.292 14.6681 17.3921 15.3096 17.3922C18.734 17.3922 21.5101 14.6161 21.5101 11.1917C21.5101 10.5498 21.4113 9.93127 21.23 9.34906C21.1947 9.23574 21.2227 9.11147 21.3067 9.02755L25.1033 5.23092Z" fill="currentColor"/>
<path fill-rule="evenodd" clip-rule="evenodd" d="M6.92037 17.9377L9.94488 14.9131C9.93435 14.9212 9.92421 14.9301 9.91451 14.9398L6.94739 17.9069C6.93757 17.9167 6.92856 17.927 6.92037 17.9377Z" fill="currentColor"/>
<path d="M15.3096 1.89101C16.8672 1.89101 18.297 2.08427 19.6037 2.41293C19.833 2.47061 19.9072 2.75511 19.74 2.92232L17.4691 5.19327C17.3852 5.27712 17.2611 5.30515 17.1478 5.26999C16.567 5.08965 15.9496 4.99124 15.3096 4.99124C11.8855 4.99162 9.10914 7.76751 9.10914 11.1917C9.10914 11.8319 9.20749 12.449 9.38787 13.0299C9.42304 13.1432 9.39502 13.2673 9.31116 13.3512L5.51446 17.1479C5.4075 17.2548 5.23856 17.2691 5.11655 17.1797C2.47132 15.2417 0.87059 12.966 0.191431 11.8608C-0.0638103 11.4452 -0.0638103 10.9382 0.191431 10.5226C1.50215 8.38972 6.23998 1.89134 15.3096 1.89101Z" fill="currentColor"/>
<path fill-rule="evenodd" clip-rule="evenodd" d="M19.0317 5.82605L21.6304 3.22726C21.6204 3.23511 21.6107 3.24363 21.6015 3.25282L19.0577 5.7966C19.0483 5.80601 19.0396 5.81585 19.0317 5.82605Z" fill="currentColor"/>
<path d="M26.1611 0.340514C25.7071 -0.113504 24.9711 -0.113505 24.5171 0.340514L21.6304 3.22726L19.0317 5.82605L9.94488 14.9131L6.92037 17.9377L4.36561 20.4925C3.91159 20.9465 3.91159 21.6824 4.36561 22.1365C4.81962 22.5905 5.55556 22.5905 6.00958 22.1365L26.1611 1.98448C26.6151 1.53047 26.6151 0.794532 26.1611 0.340514Z" fill="currentColor"/>
</g>
</svg>
