<svg preserveAspectRatio="none" width="100%" height="100%" overflow="visible" style="display: block;" viewBox="0 0 32.3588 27.0466" fill="none" xmlns="http://www.w3.org/2000/svg" class="size-full">
<g id="Vector">
<path d="M14.828 0.757704C15.4454 -0.252568 16.9134 -0.252568 17.5308 0.757704L32.1241 24.6376C32.7688 25.6926 32.0091 27.0466 30.7727 27.0466H1.58615L1.3604 27.0311C0.260223 26.8788 -0.369778 25.6269 0.234752 24.6376L14.828 0.757704ZM3.73393 23.4671C3.41155 23.9947 3.7912 24.6716 4.40944 24.6716H27.9494C28.5676 24.6716 28.9473 23.9947 28.6249 23.4671L16.8549 4.20717C16.5462 3.70203 15.8126 3.70203 15.5039 4.20717L3.73393 23.4671Z" fill="currentColor"/>
<path d="M14.9917 17.5451V8.04508C14.9917 7.38924 15.5234 6.85758 16.1792 6.85758C16.8351 6.85758 17.3667 7.38924 17.3667 8.04508V17.5451C17.3667 18.2009 16.8351 18.7326 16.1792 18.7326C15.5234 18.7326 14.9917 18.2009 14.9917 17.5451Z" fill="currentColor"/>
<path d="M16.1793 23.0882C16.8352 23.0882 17.3668 22.5566 17.3668 21.9007C17.3668 21.2449 16.8352 20.7132 16.1793 20.7132C15.5235 20.7132 14.9918 21.2449 14.9918 21.9007C14.9918 22.5566 15.5235 23.0882 16.1793 23.0882Z" fill="currentColor"/>
</g>
</svg>
