<svg preserveAspectRatio="none" width="100%" height="100%" overflow="visible" style="display: block;" viewBox="0 0 28.5 31.6667" fill="none" xmlns="http://www.w3.org/2000/svg" class="size-full">
<g id="Vector">
<path d="M18.0225 27.9412C18.6373 27.9412 19.0612 28.581 18.7263 29.1202C17.7745 30.6525 16.1261 31.6667 14.2483 31.6667C12.3709 31.6664 10.7235 30.6522 9.77204 29.1202C9.43717 28.581 9.86109 27.9412 10.4759 27.9412H18.0225Z" fill="currentColor"/>
<path fill-rule="evenodd" clip-rule="evenodd" d="M1.43777 19.4038C1.53935 19.2884 1.62625 19.1898 1.70993 19.095L1.43777 19.4038ZM27.0605 19.4031C27.2039 19.5653 27.3764 19.7605 27.6094 20.0245L27.0605 19.4031Z" fill="currentColor"/>
<path d="M14.25 0C15.2334 0.000436693 16.0313 0.834249 16.0313 1.86275C16.0313 1.87906 16.0425 1.89264 16.058 1.89363C23.7239 2.37982 24.8414 8.99237 24.9305 13.3357C24.9392 13.7586 24.9822 14.1788 25.0732 14.5909L25.5081 16.5628C25.7169 17.5089 26.1587 18.3814 26.7883 19.095L27.0605 19.4031L27.6094 20.0245C28.4995 21.0334 28.5 22.7902 28.5 23.9046V24.0611C28.4997 25.175 27.702 26.078 26.7188 26.0784H1.78125C0.797671 26.0784 0.00028902 25.1753 0 24.0611V23.9046C0 22.7901 0.000161757 21.0333 0.890625 20.0245C1.12308 19.7612 1.29502 19.5659 1.43777 19.4038L1.70993 19.095C2.33962 18.3814 2.78131 17.5089 2.9902 16.5628L3.42508 14.5909C3.51604 14.1788 3.55904 13.7586 3.56772 13.3357C3.65689 8.9924 4.77457 2.37988 12.4403 1.89363C12.4558 1.89264 12.4688 1.87902 12.4688 1.86275C12.4688 0.833979 13.2662 0 14.25 0Z" fill="currentColor"/>
</g>
</svg>
