<svg preserveAspectRatio="none" width="100%" height="100%" overflow="visible" style="display: block;" viewBox="0 0 25.3279 28.4938" fill="none" xmlns="http://www.w3.org/2000/svg" class="size-full">
<g id="Vector">
<path d="M0 26.9108C0 26.0366 0.708729 25.3279 1.58299 25.3279H23.7449C24.6191 25.3279 25.3279 26.0366 25.3279 26.9108C25.3279 27.7851 24.6191 28.4938 23.7449 28.4938H1.58299C0.708729 28.4938 0 27.7851 0 26.9108Z" fill="currentColor"/>
<path d="M11.4764 1.18724V18.019C11.4764 18.2922 11.1537 18.4372 10.9495 18.2557L6.32862 14.1482C5.83854 13.7128 5.08844 13.7571 4.65288 14.2472C4.21744 14.7372 4.2618 15.4873 4.75181 15.9229L11.6119 22.0217C12.2117 22.5549 13.1156 22.5549 13.7154 22.0217L20.5755 15.9229C21.0655 15.4873 21.1099 14.7372 20.6745 14.2472C20.2389 13.7571 19.4888 13.7128 18.9987 14.1482L14.3779 18.2557C14.1737 18.4372 13.8509 18.2922 13.8509 18.019V1.18724C13.8509 0.531547 13.3194 0 12.6637 0C12.008 0 11.4764 0.531547 11.4764 1.18724Z" fill="currentColor"/>
</g>
</svg>
