<svg preserveAspectRatio="none" width="100%" height="100%" overflow="visible" style="display: block;" viewBox="0 0 30.4857 28.9615" fill="none" xmlns="http://www.w3.org/2000/svg" class="size-full">
<g id="Vector">
<path d="M24.0297 0C23.1881 0.000224329 22.5054 0.682585 22.5054 1.52429C22.5054 1.62682 22.4428 1.71933 22.3491 1.76097C22.157 1.84625 21.97 1.94284 21.7909 2.04975C21.5445 2.19653 21.2373 2.2163 20.9885 2.07357C20.2596 1.6527 19.327 1.9029 18.906 2.63178L18.4609 3.40285C18.04 4.13191 18.2901 5.06443 19.0192 5.48535C19.1895 5.5837 19.2779 5.77808 19.2558 5.9736C19.2339 6.16752 19.2231 6.36477 19.2231 6.56456C19.2231 6.62032 19.2239 6.67595 19.2261 6.73128C19.2322 6.88869 19.1553 7.03913 19.0192 7.1183C18.2901 7.53922 18.04 8.47175 18.4609 9.2008L18.906 9.97337C19.3271 10.702 20.2597 10.9509 20.9885 10.5301C21.0045 10.5214 21.0239 10.5241 21.0377 10.536C21.4269 10.8733 21.8664 11.1532 22.3432 11.3652C22.4402 11.4083 22.5054 11.5031 22.5054 11.6093C22.5054 12.451 23.1881 13.1334 24.0297 13.1336H24.9214C25.763 13.1333 26.4457 12.451 26.4457 11.6093C26.4457 11.5033 26.5096 11.4083 26.6064 11.3652C26.8118 11.274 27.0114 11.1696 27.2019 11.0541C27.6237 10.7986 28.1559 10.7679 28.6473 10.7251C29.1253 10.6835 29.5769 10.4178 29.8352 9.97039L30.2817 9.19783C30.7019 8.46903 30.452 7.53621 29.7235 7.11533C29.7107 7.10711 29.7027 7.09175 29.7042 7.07662C29.7204 6.90816 29.7295 6.73728 29.7295 6.56456C29.7295 6.25155 29.7029 5.9441 29.6506 5.64612C29.6399 5.58343 29.6685 5.52028 29.7235 5.48833C30.452 5.0674 30.7021 4.13463 30.2817 3.40583L29.8352 2.63327C29.4143 1.9045 28.4816 1.65449 27.7526 2.07506C27.5754 2.17685 27.3563 2.16527 27.181 2.06017C26.9952 1.94865 26.8018 1.84785 26.602 1.75948C26.5082 1.718 26.4457 1.62686 26.4457 1.52429C26.4457 0.68262 25.763 0.000281207 24.9214 0H24.0297ZM24.4763 3.93874C25.9269 3.93892 27.1021 5.11542 27.1021 6.56605C27.102 8.0166 25.9268 9.19317 24.4763 9.19336C23.0256 9.19336 21.849 8.01671 21.8489 6.56605C21.8489 5.1153 23.0255 3.93874 24.4763 3.93874Z" fill="currentColor"/>
<path d="M8.38358 8.00251C8.38358 9.47573 7.1893 10.67 5.71608 10.67C4.24286 10.67 3.04857 9.47573 3.04857 8.00251V6.79337C3.04857 6.58292 2.84022 6.43639 2.64935 6.52501C1.08547 7.25115 7.14645e-08 8.83217 0 10.67V24.3886C0 26.8352 1.92145 28.8331 4.33767 28.9555L4.57286 28.9615H22.8643C25.3898 28.9615 27.4372 26.9141 27.4372 24.3886V14.3139C27.4372 14.014 26.9987 13.8577 26.7598 14.0388C26.3776 14.3287 25.9247 14.5301 25.4315 14.6134C25.2742 14.6399 25.1507 14.7708 25.1507 14.9304V24.3886C25.1507 25.6514 24.1271 26.675 22.8643 26.675H4.57286C3.3101 26.675 2.28643 25.6514 2.28643 24.3886V14.0234C2.28643 13.8551 2.42292 13.7186 2.59129 13.7186H21.1185C21.387 13.7186 21.5387 13.3818 21.4026 13.1504C21.2926 12.9631 21.2019 12.7631 21.1335 12.553C21.1088 12.4772 21.0585 12.4119 20.9901 12.371C20.9391 12.3406 20.8885 12.3095 20.8383 12.2777C20.7729 12.2362 20.6947 12.2201 20.6179 12.23C19.4349 12.3832 18.2206 11.8325 17.5859 10.734L17.1408 9.96295C16.472 8.80439 16.6526 7.39154 17.4851 6.43698C17.5527 6.35953 17.5526 6.2424 17.4852 6.16481C17.4483 6.12234 17.3955 6.09715 17.3392 6.09715H8.68844C8.52007 6.09715 8.38358 6.23364 8.38358 6.40201V8.00251Z" fill="currentColor"/>
<path d="M19.5247 6.09715C19.3668 6.09715 19.2337 6.21779 19.2273 6.37563C19.2247 6.43832 19.2231 6.5013 19.2231 6.56456C19.2231 6.62032 19.2239 6.67595 19.2261 6.73128C19.2322 6.88869 19.1553 7.03913 19.0192 7.1183C18.2901 7.53922 18.04 8.47175 18.4609 9.2008L18.906 9.97337C19.3271 10.702 20.2597 10.9509 20.9885 10.5301C21.0045 10.5214 21.0239 10.5241 21.0377 10.536C21.4269 10.8733 21.8664 11.1532 22.3432 11.3652C22.4402 11.4083 22.5054 11.5031 22.5054 11.6093C22.5054 12.451 23.1881 13.1334 24.0297 13.1336H24.9214C25.763 13.1333 26.4457 12.451 26.4457 11.6093C26.4457 11.5033 26.5096 11.4083 26.6064 11.3652C26.8118 11.274 27.0114 11.1696 27.2019 11.0541C27.2178 11.0444 27.234 11.0352 27.2503 11.0263C27.3596 10.9665 27.4372 10.8578 27.4372 10.7333V10.67C27.4372 9.86172 27.227 9.10271 26.8589 8.44392C26.7554 8.25861 26.4964 8.25726 26.3476 8.40861C25.8714 8.8928 25.209 9.19325 24.4763 9.19336C23.0256 9.19336 21.849 8.01671 21.8489 6.56605C21.8489 6.53025 21.85 6.49464 21.8516 6.45923C21.8604 6.26939 21.719 6.09715 21.529 6.09715H19.5247Z" fill="currentColor"/>
<path d="M4.57286 8.00251C4.57286 8.63389 5.0847 9.14573 5.71608 9.14573C6.34746 9.14573 6.85929 8.63389 6.85929 8.00251V6.40201C6.85929 6.23364 6.7228 6.09715 6.55444 6.09715H4.87772C4.70935 6.09715 4.57286 6.23364 4.57286 6.40201V8.00251Z" fill="currentColor"/>
<path d="M6.85929 5.71608C6.85929 5.0847 6.34746 4.57286 5.71608 4.57286C5.0847 4.57286 4.57286 5.0847 4.57286 5.71608V8.00251C4.57286 8.63389 5.0847 9.14573 5.71608 9.14573C6.34746 9.14573 6.85929 8.63389 6.85929 8.00251V5.71608Z" fill="currentColor"/>
</g>
</svg>
