<svg preserveAspectRatio="none" width="100%" height="100%" overflow="visible" style="display: block;" viewBox="0 0 31.009 31.009" fill="none" xmlns="http://www.w3.org/2000/svg" class="size-full">
<g id="Vector">
<path d="M30.3783 25.1386C31.2193 25.3854 31.2193 26.5504 30.3783 26.7971L16.5209 30.8631C15.8575 31.0576 15.1498 31.0577 14.4864 30.8631L0.630695 26.7971C-0.210232 26.5504 -0.210232 25.3854 0.630695 25.1386L10.9048 22.123C11.2268 22.0285 11.5751 22.1212 11.8081 22.3582C12.1251 22.6807 12.4244 22.9739 12.6991 23.2333C14.2781 24.7234 16.731 24.7236 18.3099 23.2333C18.5844 22.974 18.883 22.6808 19.1994 22.3583C19.4322 22.1212 19.7805 22.0285 20.1025 22.123L30.3783 25.1386Z" fill="currentColor"/>
<path fill-rule="evenodd" clip-rule="evenodd" d="M24.3543 8.65599C24.3543 3.87542 20.392 0 15.5043 0C10.6166 0 6.65434 3.87542 6.65434 8.65599C6.65434 14.3511 11.3838 19.5839 13.9279 21.9866C14.8212 22.8302 16.1874 22.8302 17.0807 21.9866C19.6248 19.5839 24.3543 14.3511 24.3543 8.65599ZM10.1943 8.65599C10.1943 5.78765 12.5717 3.4624 15.5043 3.4624C18.4369 3.4624 20.8143 5.78765 20.8143 8.65599C20.8143 11.5243 18.4369 13.8496 15.5043 13.8496C12.5717 13.8496 10.1943 11.5243 10.1943 8.65599Z" fill="currentColor"/>
</g>
</svg>
