<svg preserveAspectRatio="none" width="100%" height="100%" overflow="visible" style="display: block;" viewBox="0 0 23.8796 29.8495" fill="none" xmlns="http://www.w3.org/2000/svg" class="size-full">
<g id="Vector">
<path d="M15.4318 22.0373C15.5604 22.172 15.5604 22.3903 15.4318 22.5249L8.67981 29.5948C8.13259 30.1671 7.20212 29.7053 7.27898 28.8994L8.44178 16.7353C8.4901 16.2279 8.10863 15.7874 7.62154 15.7874H2.44925C1.71565 15.7873 1.34831 14.8589 1.86705 14.3159L4.72849 11.3189C4.85712 11.1841 5.06573 11.1841 5.19438 11.3188L15.4318 22.0373Z" fill="currentColor"/>
<path fill-rule="evenodd" clip-rule="evenodd" d="M16.6125 20.8344L12.228 16.2449L16.5962 20.8183C16.6015 20.8239 16.607 20.8292 16.6125 20.8344Z" fill="currentColor"/>
<path d="M15.2996 0.254245C15.8467 -0.317336 16.7767 0.144293 16.7004 0.949582L15.5376 13.1138C15.4891 13.6212 15.8706 14.0617 16.3578 14.0617H21.5301C22.2635 14.0618 22.6307 14.9901 22.1123 15.5331L19.9746 17.7695C19.8459 17.9041 19.6375 17.904 19.5089 17.7694L9.26982 7.05244C9.14116 6.91778 9.14117 6.69942 9.26983 6.56476L15.2996 0.254245Z" fill="currentColor"/>
<path d="M2.10839 1.99564C1.62602 1.49068 0.844141 1.49068 0.361773 1.99564C-0.120591 2.50059 -0.120591 3.3191 0.361773 3.82405L12.228 16.2449L16.6125 20.8344L21.7712 26.2341C22.2535 26.7391 23.0354 26.7391 23.5178 26.2341C24.0002 25.7291 24.0002 24.9106 23.5178 24.4057L13.975 14.4169L8.10535 8.27139C8.09916 8.26492 8.09279 8.25876 8.08626 8.2529L2.10839 1.99564Z" fill="currentColor"/>
</g>
</svg>
