<svg preserveAspectRatio="none" width="100%" height="100%" overflow="visible" style="display: block;" viewBox="0 0 31.6598 31.6598" fill="none" xmlns="http://www.w3.org/2000/svg" class="size-full">
<g id="Vector">
<path d="M14.6427 5.54083V15.3727C14.6427 16.0796 15.0199 16.7336 15.632 17.0871L23.9427 21.8855C24.5106 22.2134 25.2365 22.0189 25.5644 21.4511C25.8923 20.8833 25.6978 20.1574 25.13 19.8295L17.0171 15.1439V5.54083C17.0171 4.88513 16.4856 4.35359 15.8299 4.35359C15.1742 4.35359 14.6427 4.88513 14.6427 5.54083Z" fill="currentColor"/>
<path d="M29.2853 15.8299C29.2853 8.39868 23.2611 2.37449 15.8299 2.37449C8.39868 2.37449 2.37449 8.39868 2.37449 15.8299C2.37449 23.2611 8.39868 29.2853 15.8299 29.2853C23.2611 29.2853 29.2853 23.2611 29.2853 15.8299ZM31.6598 15.8299C31.6598 24.5725 24.5725 31.6598 15.8299 31.6598C7.08729 31.6598 0 24.5725 0 15.8299C0 7.08729 7.08729 0 15.8299 0C24.5725 0 31.6598 7.08729 31.6598 15.8299Z" fill="currentColor"/>
</g>
</svg>
