<svg preserveAspectRatio="none" width="100%" height="100%" overflow="visible" style="display: block;" viewBox="0 0 31.6667 28.5" fill="none" xmlns="http://www.w3.org/2000/svg" class="size-full">
<g id="Vector">
<path fill-rule="evenodd" clip-rule="evenodd" d="M19.2984 8.06824C19.3589 8.07958 19.422 8.08557 19.4861 8.08557L19.2984 8.06824Z" fill="currentColor"/>
<path d="M1.57657 9.05461C4.24581 6.13223 9.11698 6.13223 11.7862 9.05461L12.6417 9.99004C12.7915 10.1538 13.0647 10.1537 13.2143 9.98983L14.0683 9.05461C14.6784 8.38661 15.4039 7.87051 16.1916 7.50762C16.4244 7.40039 16.6901 7.56071 16.7474 7.79525C17.0304 8.95323 18.1486 9.81766 19.4869 9.81766H20.6731C20.8801 9.81766 21.0479 9.97279 21.0479 10.1642V11.2608C21.0479 12.6961 22.3064 13.8596 23.8588 13.8596H25.3613C25.588 13.8596 25.7636 14.0445 25.7195 14.2501C25.5057 15.2461 25.028 16.204 24.2779 17.0251L14.3592 27.8854C13.6106 28.7048 12.2439 28.7049 11.4952 27.8854L1.57657 17.0251C-0.525562 14.7237 -0.525481 11.3561 1.57657 9.05461Z" fill="currentColor"/>
<path d="M30.7297 4.04194H28.2317C27.7143 4.04194 27.2948 3.65411 27.2948 3.17569V0.866251C27.2948 0.387834 26.8753 0 26.3578 0H23.858C23.3405 0 22.921 0.387834 22.921 0.86625V3.17569C22.921 3.65411 22.5015 4.04194 21.9841 4.04194H19.4861C18.9686 4.04194 18.5491 4.42977 18.5491 4.90819V7.21932C18.5491 7.25092 18.5509 7.28213 18.5545 7.31285C18.5963 7.67229 18.8758 7.96591 19.2448 8.05657C19.2626 8.06095 19.2802 8.06482 19.2984 8.06824L19.4861 8.08557H21.9841C22.5015 8.08557 22.921 8.4734 22.921 8.95182V11.2613C22.921 11.7397 23.3405 12.1275 23.858 12.1275H26.3578C26.8753 12.1275 27.2948 11.7397 27.2948 11.2613V8.95182C27.2948 8.4734 27.7143 8.08557 28.2317 8.08557H30.7297C31.2472 8.08557 31.6667 7.69773 31.6667 7.21932V4.90819C31.6667 4.42977 31.2472 4.04194 30.7297 4.04194Z" fill="currentColor"/>
</g>
</svg>
