<svg preserveAspectRatio="none" width="100%" height="100%" overflow="visible" style="display: block;" viewBox="0 0 14.8966 14.8965" fill="none" xmlns="http://www.w3.org/2000/svg" class="size-full">
<path id="Vector 929 (Stroke)" d="M14.8966 13.7186C14.8966 14.3691 14.3692 14.8964 13.7187 14.8964C13.0682 14.8964 12.5408 14.3691 12.5408 13.7186V5.00252C12.5408 4.64042 12.103 4.45908 11.847 4.71512L2.84337 13.7186C2.38339 14.1786 1.63778 14.1786 1.1778 13.7186C0.717815 13.2586 0.717815 12.513 1.1778 12.053L10.1814 3.04956C10.4375 2.79352 10.2561 2.35573 9.89402 2.35573H1.17786C0.527347 2.35573 0 1.82838 0 1.17786C3.13008e-07 0.527347 0.527348 0 1.17786 0H12.8644C13.9867 0 14.8966 0.909846 14.8966 2.0322V13.7186Z" fill="currentColor"/>
</svg>
