<svg preserveAspectRatio="none" width="100%" height="100%" overflow="visible" style="display: block;" viewBox="0 0 26.9167 31.6667" fill="none" xmlns="http://www.w3.org/2000/svg" class="size-full">
<g id="Vector">
<path d="M13.4583 0C17.6641 0 26.9167 4.18271 26.9167 6.69233L26.9085 7.50764C26.5956 24.4514 16.5677 30.3214 14.035 31.5353L13.8953 31.5925C13.6116 31.6914 13.305 31.6914 13.0213 31.5925L12.8817 31.5353C10.3088 30.3021 0 24.2639 0 6.69233C0 4.18271 10.0937 1.32959e-06 13.4583 0ZM13.4583 2.50963C13.0079 2.50963 12.0423 2.67702 10.6737 3.09292C9.37096 3.48879 7.90217 4.04764 6.53038 4.68104C5.14196 5.32214 3.94852 5.99622 3.14444 6.59594C2.7279 6.90663 2.52749 7.41833 2.54326 7.93775C2.93115 20.7113 9.24945 26.3562 12.4799 28.4277C13.0787 28.8117 13.8379 28.8117 14.4368 28.4276C17.6743 26.3513 24.0125 20.6853 24.3739 7.84967C24.3879 7.35288 24.2132 6.85538 23.8248 6.54529C23.0941 5.96196 21.991 5.29868 20.6705 4.66633C17.9439 3.36073 14.9909 2.50963 13.4583 2.50963Z" fill="currentColor"/>
<path fill-rule="evenodd" clip-rule="evenodd" d="M9.12787 20.9114L12.8635 17.1171C13.1909 16.7846 13.7284 16.7818 14.0593 17.1109L17.8823 20.913C18.2866 21.315 18.9419 21.315 19.3462 20.913C19.7505 20.5109 19.7505 19.8592 19.3462 19.4571L15.517 15.6487C15.1885 15.322 15.1885 14.7923 15.517 14.4657L19.3462 10.6579C19.7505 10.2558 19.7505 9.60408 19.3462 9.20199C18.9419 8.79991 18.2865 8.79991 17.8823 9.20199L14.0535 13.0093C13.7248 13.3362 13.1919 13.3359 12.8635 13.0088L9.03406 9.19425C8.62976 8.79217 7.97443 8.79217 7.57013 9.19425C7.16584 9.59633 7.16584 10.2481 7.57013 10.6502L11.4067 14.4719C11.7323 14.7962 11.7349 15.3207 11.4125 15.6482L7.66395 19.4556C7.25965 19.8576 7.25965 20.5094 7.66395 20.9114C8.06824 21.3135 8.72358 21.3135 9.12787 20.9114Z" fill="currentColor"/>
</g>
</svg>
