<svg preserveAspectRatio="none" width="100%" height="100%" overflow="visible" style="display: block;" viewBox="0 0 30.5048 25.7201" fill="none" xmlns="http://www.w3.org/2000/svg" class="size-full">
<path id="Vector" fill-rule="evenodd" clip-rule="evenodd" d="M15.2524 0C23.6761 0 30.5048 2.71215 30.5048 11.7506C30.5047 15.7896 29.1399 18.564 26.8794 20.3986C26.6864 20.5553 26.571 20.7907 26.5785 21.0391L26.6992 24.9326C26.718 25.5406 26.053 25.9248 25.5359 25.6044L21.477 23.0901C21.3087 22.986 21.1064 22.9525 20.9125 22.9918C19.1624 23.3461 17.2524 23.4997 15.2524 23.4997C6.82897 23.4997 0.000386346 19.8847 0 11.7506C0 3.61599 6.82873 2.08107e-07 15.2524 0ZM7.6262 9.66979C6.36265 9.66979 5.33834 10.6941 5.33834 11.9576C5.33834 13.2212 6.36265 14.2455 7.6262 14.2455C8.88975 14.2455 9.91406 13.2212 9.91406 11.9576C9.91406 10.6941 8.88975 9.66979 7.6262 9.66979ZM15.2524 9.66979C13.9889 9.66979 12.9645 10.6941 12.9645 11.9576C12.9645 13.2212 13.9889 14.2455 15.2524 14.2455C16.516 14.2455 17.5403 13.2212 17.5403 11.9576C17.5403 10.6941 16.516 9.66979 15.2524 9.66979ZM22.8786 9.66979C21.6151 9.66979 20.5907 10.6941 20.5907 11.9576C20.5907 13.2212 21.6151 14.2455 22.8786 14.2455C24.1422 14.2455 25.1665 13.2212 25.1665 11.9576C25.1665 10.6941 24.1422 9.66979 22.8786 9.66979Z" fill="currentColor"/>
</svg>
