<svg preserveAspectRatio="none" width="100%" height="100%" overflow="visible" style="display: block;" viewBox="0 0 31.6598 31.6598" fill="none" xmlns="http://www.w3.org/2000/svg" class="size-full">
<g id="Vector">
<path d="M14.6427 19.7874V5.54047C14.6427 4.88477 15.1742 4.35322 15.8299 4.35322C16.4856 4.35322 17.0171 4.88477 17.0171 5.54047V19.7874C17.0171 20.4431 16.4856 20.9746 15.8299 20.9746C15.1742 20.9746 14.6427 20.4431 14.6427 19.7874Z" fill="currentColor"/>
<path d="M17.0171 24.9321C17.0171 25.5878 16.4856 26.1193 15.8299 26.1193C15.1742 26.1193 14.6427 25.5878 14.6427 24.9321C14.6427 24.2764 15.1742 23.7449 15.8299 23.7449C16.4856 23.7449 17.0171 24.2764 17.0171 24.9321Z" fill="currentColor"/>
<path d="M29.2853 15.8299C29.2853 8.39868 23.2611 2.37449 15.8299 2.37449C8.39868 2.37449 2.37449 8.39868 2.37449 15.8299C2.37449 23.2611 8.39868 29.2853 15.8299 29.2853C23.2611 29.2853 29.2853 23.2611 29.2853 15.8299ZM31.6598 15.8299C31.6598 24.5725 24.5725 31.6598 15.8299 31.6598C7.08729 31.6598 0 24.5725 0 15.8299C0 7.08729 7.08729 0 15.8299 0C24.5725 0 31.6598 7.08729 31.6598 15.8299Z" fill="currentColor"/>
</g>
</svg>
