<svg preserveAspectRatio="none" width="100%" height="100%" overflow="visible" style="display: block;" viewBox="0 0 28.5 31.6667" fill="none" xmlns="http://www.w3.org/2000/svg" class="size-full">
<g id="Vector">
<path d="M21.3995 0C20.5252 0.000202571 19.8162 0.709007 19.8162 1.58333C19.8162 1.73848 19.7215 1.87701 19.5806 1.94178C19.3327 2.05568 19.0944 2.18703 18.8672 2.33395C18.7099 2.43568 18.5087 2.44772 18.3465 2.35414L18.1091 2.21729C17.3521 1.78037 16.3849 2.03899 15.9475 2.79557L15.3924 3.75578C14.9552 4.51307 15.215 5.48172 15.9723 5.91895L16.0547 5.96633C16.2279 6.06597 16.3184 6.26323 16.2944 6.46168C16.2682 6.67926 16.2537 6.90051 16.2537 7.125C16.2537 7.17811 16.2546 7.23104 16.2564 7.28379C16.2625 7.46665 16.173 7.64108 16.0147 7.73281L15.9723 7.75741C15.215 8.19462 14.9552 9.16328 15.3924 9.92057L15.946 10.8808C16.3831 11.6378 17.352 11.8974 18.1091 11.4606C18.1618 11.4301 18.228 11.4367 18.2744 11.4761C18.6673 11.8087 19.1057 12.0888 19.5791 12.3061C19.721 12.3712 19.8162 12.5106 19.8162 12.6667C19.8162 13.541 20.5252 14.2498 21.3995 14.25H22.5082C23.3825 14.2499 24.0915 13.541 24.0915 12.6667C24.0915 12.5106 24.1867 12.3712 24.3286 12.3062C24.6998 12.1362 25.0498 11.9282 25.373 11.6861C25.528 11.5701 25.7343 11.5529 25.9201 11.6074C26.6041 11.808 27.3604 11.5257 27.7329 10.8808L28.2879 9.92057C28.7246 9.16349 28.4649 8.19615 27.7081 7.75895C27.6572 7.72878 27.6286 7.6718 27.6336 7.61284C27.6472 7.45203 27.654 7.28933 27.654 7.125C27.654 6.80857 27.6285 6.49813 27.579 6.19572C27.561 6.08547 27.6111 5.97437 27.7081 5.91895C28.4651 5.48177 28.7247 4.51294 28.2879 3.75578L27.7329 2.79557C27.2957 2.03875 26.3283 1.77925 25.5712 2.21574L25.4526 2.28402C25.2937 2.37548 25.0972 2.36579 24.9411 2.26964C24.7441 2.14832 24.5391 2.0387 24.3272 1.94163C24.1861 1.87701 24.0915 1.73847 24.0915 1.58333C24.0915 0.708954 23.3825 0.000116011 22.5082 0H21.3995ZM21.9546 4.27531C23.5285 4.27542 24.8043 5.55106 24.8043 7.125C24.8043 8.69894 23.5285 9.97458 21.9546 9.97469C20.3806 9.97469 19.1049 8.69901 19.1049 7.125C19.1049 5.55099 20.3806 4.27531 21.9546 4.27531Z" fill="currentColor"/>
<path fill-rule="evenodd" clip-rule="evenodd" d="M13.3091 4.75C13.4757 4.75 13.6122 4.87961 13.6388 5.04415C13.7302 5.61064 13.9744 6.14956 14.3537 6.59556C14.471 6.73355 14.471 6.94121 14.3537 7.07919C13.9387 7.56707 13.6859 8.16638 13.6176 8.79133C13.5988 8.96396 13.4592 9.10417 13.2855 9.10417H3.16667C2.51083 9.10417 1.97917 9.63583 1.97917 10.2917C1.97917 10.9475 2.51083 11.4792 3.16667 11.4792H14.2813C14.3949 11.4792 14.4997 11.54 14.5561 11.6385L14.5747 11.6709C15.2481 12.837 16.551 13.411 17.8061 13.2152C17.8887 13.2023 17.9736 13.2186 18.0442 13.2634C18.1111 13.3058 18.1789 13.347 18.2473 13.3874C18.3013 13.4192 18.3403 13.4718 18.3578 13.5319C18.4036 13.689 18.2925 13.8542 18.1288 13.8542H3.16667C2.51083 13.8542 1.97917 14.3858 1.97917 15.0417C1.97917 15.6975 2.51083 16.2292 3.16667 16.2292H19C19.3636 16.2292 19.6868 16.0647 19.9036 15.8068C20.016 15.6731 20.201 15.6023 20.366 15.6595C20.6898 15.7719 21.0375 15.8332 21.3997 15.8333H21.85C22.0249 15.8333 22.1667 15.9751 22.1667 16.15V30.0833C22.1667 30.9578 21.4578 31.6667 20.5833 31.6667H1.58333C0.708883 31.6667 0 30.9578 0 30.0833V6.33333C3.18775e-09 5.45888 0.708883 4.75 1.58333 4.75H13.3091ZM3.16667 18.6042C2.51083 18.6042 1.97917 19.1358 1.97917 19.7917C1.97917 20.4475 2.51083 20.9792 3.16667 20.9792H11.0833C11.7392 20.9792 12.2708 20.4475 12.2708 19.7917C12.2708 19.1358 11.7392 18.6042 11.0833 18.6042H3.16667Z" fill="currentColor"/>
<path d="M19.3322 4.75C19.6458 4.75 19.8136 5.22055 19.6316 5.47602C19.3002 5.94121 19.1049 6.51007 19.1049 7.125C19.1049 8.69901 20.3806 9.97469 21.9546 9.97469C22.0692 9.97467 22.1667 10.06 22.1667 10.1746V13.9333C22.1667 14.1082 22.0249 14.25 21.85 14.25H21.3995C20.5252 14.2498 19.8162 13.541 19.8162 12.6667C19.8162 12.5106 19.721 12.3712 19.5791 12.3061C19.328 12.1908 19.0874 12.0579 18.8575 11.9085C18.6515 11.7747 18.7543 11.4792 19 11.4792C19.6558 11.4792 20.1875 10.9475 20.1875 10.2917C20.1875 9.63583 19.6558 9.10417 19 9.10417H15.5044C15.3274 9.10417 15.1818 8.95767 15.2201 8.78491C15.3128 8.36717 15.5725 7.98822 15.9723 7.75741L16.0147 7.73281C16.173 7.64108 16.2625 7.46665 16.2564 7.28379C16.2546 7.23104 16.2537 7.17811 16.2537 7.125C16.2537 7.01283 16.2578 6.90151 16.2647 6.79102L16.2944 6.46168C16.3184 6.26323 16.2279 6.06597 16.0547 5.96633L15.9723 5.91895C15.64 5.72713 15.4044 5.43294 15.2809 5.09924C15.2145 4.92004 15.3641 4.75 15.5552 4.75H19.3322Z" fill="currentColor"/>
</g>
</svg>
