<svg preserveAspectRatio="none" width="100%" height="100%" overflow="visible" style="display: block;" viewBox="0 0 31.009 31.009" fill="none" xmlns="http://www.w3.org/2000/svg" class="size-full">
<g id="Vector">
<path d="M9.69032 7.75226V21.7063C9.69032 22.7767 10.558 23.6444 11.6284 23.6444H20.1559C20.7981 23.6444 21.3187 23.1238 21.3187 22.4816C21.3187 21.8393 20.7981 21.3187 20.1559 21.3187H12.016V7.75226C12.016 7.11004 11.4954 6.58942 10.8532 6.58942C10.2109 6.58942 9.69032 7.11004 9.69032 7.75226Z" fill="currentColor"/>
<path d="M28.6834 15.5045C28.6834 8.22605 22.783 2.32568 15.5045 2.32568C8.22605 2.32568 2.32568 8.22605 2.32568 15.5045C2.32568 22.783 8.22605 28.6834 15.5045 28.6834C22.783 28.6834 28.6834 22.783 28.6834 15.5045ZM31.009 15.5045C31.009 24.0674 24.0674 31.009 15.5045 31.009C6.94161 31.009 0 24.0674 0 15.5045C0 6.94161 6.94161 0 15.5045 0C24.0674 0 31.009 6.94161 31.009 15.5045Z" fill="currentColor"/>
</g>
</svg>
