<svg preserveAspectRatio="none" width="100%" height="100%" overflow="visible" style="display: block;" viewBox="0 0 23.0824 23.2115" fill="none" xmlns="http://www.w3.org/2000/svg" class="size-full">
<path id="Vector" d="M0.408643 0.347735C0.87229 -0.115912 1.62383 -0.115912 2.08748 0.347735L10.9815 9.43179C11.2906 9.74089 11.7917 9.74089 12.1008 9.43179L21.0558 0.47686C21.5194 0.0132132 22.271 0.0132132 22.7346 0.47686C23.1983 0.940508 23.1983 1.69205 22.7346 2.1557L13.7797 11.1106C13.4706 11.4197 13.4706 11.9209 13.7797 12.23L22.7347 21.185C23.1983 21.6486 23.1983 22.4001 22.7347 22.8638C22.271 23.3274 21.5195 23.3274 21.0558 22.8638L12.1008 13.9088C11.7917 13.5997 11.2906 13.5997 10.9815 13.9088L2.02657 22.8637C1.56292 23.3274 0.811382 23.3274 0.347736 22.8637C-0.115912 22.4001 -0.115912 21.6485 0.347736 21.1849L9.30267 12.23C9.61176 11.9209 9.61176 11.4197 9.30266 11.1106L0.408643 2.02657C-0.0550046 1.56292 -0.0550046 0.811383 0.408643 0.347735Z" fill="currentColor"/>
</svg>
