<svg preserveAspectRatio="none" width="100%" height="100%" overflow="visible" style="display: block;" viewBox="0 0 24.1745 30.9864" fill="none" xmlns="http://www.w3.org/2000/svg" class="size-full">
<g id="Vector">
<path d="M5.88998 4.64795C5.88998 2.08096 7.97094 0 10.5379 0H13.6366C16.2036 0 18.2845 2.08096 18.2845 4.64795V13.9439C18.2845 16.5109 16.2036 18.5918 13.6366 18.5918H10.5379C7.97094 18.5918 5.88998 16.5109 5.88998 13.9439V4.64795Z" fill="currentColor"/>
<path d="M23.0481 13.9439C23.7564 13.9439 24.3087 14.5671 24.1458 15.2565C22.8543 20.7218 17.9474 24.7891 12.0872 24.7891C6.22714 24.7891 1.32024 20.7218 0.028714 15.2565C-0.134179 14.5671 0.418068 13.9439 1.12637 13.9439C1.70742 13.9439 2.19433 14.3703 2.34035 14.9327C3.46535 19.2657 7.40223 22.4651 12.0872 22.4651C16.7723 22.4651 20.7091 19.2657 21.8341 14.9327C21.9802 14.3703 22.4671 13.9439 23.0481 13.9439Z" fill="currentColor"/>
<path d="M10.9253 24.4018C10.9253 23.76 11.4455 23.2398 12.0872 23.2398C12.729 23.2398 13.2492 23.76 13.2492 24.4018V29.8244C13.2492 30.4661 12.729 30.9864 12.0872 30.9864C11.4455 30.9864 10.9253 30.4661 10.9253 29.8244V24.4018Z" fill="currentColor"/>
</g>
</svg>
