<svg preserveAspectRatio="none" width="100%" height="100%" overflow="visible" style="display: block;" viewBox="0 0 24.3833 30.4792" fill="none" xmlns="http://www.w3.org/2000/svg" class="size-full">
<path id="Vector 927 (Stroke)" d="M11.0412 29.3397L11.0412 4.22531C11.0412 3.96313 10.7317 3.82402 10.5359 3.99821L1.8943 12.1541C1.42434 12.572 0.705035 12.5294 0.287352 12.0592C-0.130211 11.5888 -0.0876667 10.8689 0.382227 10.4509L11.1711 0.383825C11.7463 -0.127942 12.6131 -0.127942 13.1883 0.383825L24.0011 10.5458C24.471 10.9639 24.5135 11.6838 24.096 12.1541C23.6783 12.6244 22.959 12.667 22.489 12.2491L13.8235 3.99821C13.6277 3.82402 13.3182 3.96313 13.3182 4.22531L13.3182 29.3397C13.3182 29.969 12.8085 30.4791 12.1797 30.4791C11.5509 30.4791 11.0412 29.969 11.0412 29.3397Z" fill="currentColor"/>
</svg>
