<svg preserveAspectRatio="none" width="100%" height="100%" overflow="visible" style="display: block;" viewBox="0 0 25.3333 28.5" fill="none" xmlns="http://www.w3.org/2000/svg" class="size-full">
<g id="Vector">
<path d="M0 26.9167C0 26.0422 0.708883 25.3333 1.58333 25.3333H23.75C24.6245 25.3333 25.3333 26.0422 25.3333 26.9167C25.3333 27.7911 24.6245 28.5 23.75 28.5H1.58333C0.708883 28.5 0 27.7911 0 26.9167Z" fill="currentColor"/>
<path d="M11.4792 20.9791L11.4789 4.4035C11.4789 4.13026 11.1561 3.98529 10.9519 4.16682L6.32999 8.27515C5.83981 8.71069 5.08954 8.66631 4.65388 8.17619C4.21835 7.68601 4.26273 6.93575 4.75284 6.50009L11.6144 0.400012C12.2144 -0.133337 13.1185 -0.133337 13.7184 0.400012L20.58 6.50009C21.0701 6.93575 21.1145 7.68601 20.679 8.17619C20.2433 8.66631 19.493 8.71069 19.0028 8.27515L14.381 4.16682C14.1767 3.98529 13.8539 4.13026 13.8539 4.4035L13.8542 20.9791C13.8542 21.6349 13.3225 22.1666 12.6667 22.1666C12.0108 22.1666 11.4792 21.6349 11.4792 20.9791Z" fill="currentColor"/>
</g>
</svg>
