<svg preserveAspectRatio="none" width="100%" height="100%" overflow="visible" style="display: block;" viewBox="0 0 29.8308 29.8308" fill="none" xmlns="http://www.w3.org/2000/svg" class="size-full">
<path id="Vector 929 (Stroke)" d="M29.8308 21.6952C29.8308 22.4441 29.2237 23.0512 28.4749 23.0512C27.726 23.0512 27.1189 22.4441 27.1189 21.6952V5.34948C27.1189 5.08371 26.7976 4.95062 26.6097 5.13854L2.31455 29.4337C1.78502 29.9632 0.92668 29.9632 0.397149 29.4337C-0.132383 28.9041 -0.132383 28.0458 0.397149 27.5163L24.6923 3.22114C24.8802 3.03322 24.7471 2.7119 24.4813 2.7119H8.1357C7.38683 2.7119 6.77975 2.10482 6.77975 1.35595C6.77975 0.60708 7.38683 0 8.1357 0H28.3393C29.163 0 29.8308 0.667785 29.8308 1.49154V21.6952Z" fill="currentColor"/>
</svg>
