<svg preserveAspectRatio="none" width="100%" height="100%" overflow="visible" style="display: block;" viewBox="0 0 200 200" fill="none" xmlns="http://www.w3.org/2000/svg">
<g id="logo">
<path id="Subtract" fill-rule="evenodd" clip-rule="evenodd" d="M99.9563 0.0001297C148.127 0.0001297 173.372 11.8616 182.663 17.5106C185.475 19.2199 186.913 22.3271 186.913 25.6174V66.4132C186.913 176.1 99.9563 200 99.9563 200C99.9563 200 12.9998 174.597 12.9998 66.4132V25.6174C12.9998 22.3271 14.438 19.2199 17.2494 17.5106C26.5409 11.8616 51.786 0.0001297 99.9563 0.0001297Z" fill="var(--fill-0, #0B0B0B)"/>
<path id="Subtract_2" d="M105.904 14.8829C107.426 15.4724 109 16.0271 110.487 16.6339C127.417 23.4823 139.989 38.8956 143.258 56.8575C143.846 60.013 144.14 63.2902 144.14 66.6017C144.14 68.2488 144.053 69.9309 143.898 71.63C143.638 74.404 143.171 77.1436 142.514 79.7443C146.872 77.6117 150.659 74.6464 153.875 71.0402C158.371 79.7091 160.827 89.5401 160.827 99.4747C160.827 132.684 133.922 159.703 100.832 159.775C95.026 151.837 95.0089 135.865 95.0089 135.776C108.707 135.776 132.715 130.581 132.715 130.581C132.758 130.547 138.714 125.732 139.45 106.654C125.892 114.807 122.624 118.246 95.0089 115.871V103.141C95.0089 103.141 121.131 98.6459 129.155 86.6398C137.164 74.6571 121.04 54.0845 120.977 54.004C119.328 71.8197 80.081 98.8775 63.7227 82.5597C60.3597 92.624 56.9971 130.277 71.8292 152.411C53.1976 142.156 40.5372 122.289 40.5372 99.5089C40.5372 95.9894 40.849 92.4354 41.4542 88.9679C43.6331 76.606 49.5124 65.3883 58.4874 56.546C59.4904 55.5404 60.5626 54.5516 61.6866 53.6154C64.6262 51.1015 67.8083 48.8655 71.1456 46.9757C69.7969 49.8017 69.1749 52.9053 69.1749 56.13C69.1749 57.1181 69.2264 58.0196 69.3302 58.921C69.9008 63.9142 72.0105 68.5262 75.4171 72.2365C76.6103 65.3881 80.5705 59.3888 86.4327 55.7306C87.4357 55.2625 88.4739 54.7251 89.4942 54.1183C89.8399 53.9103 90.1856 53.702 90.5313 53.4767C96.0823 49.8877 100.441 44.9816 103.294 39.2081C103.899 37.9426 104.417 36.7461 104.85 35.5499C106.233 31.6836 106.942 27.6263 106.942 23.4825C106.942 21.8701 106.838 20.2749 106.631 18.7491C106.475 17.4489 106.216 16.1485 105.904 14.8829Z" fill="var(--fill-0, #F3FF47)"/>
</g>
</svg>
