<svg preserveAspectRatio="none" width="100%" height="100%" overflow="visible" style="display: block;" viewBox="0 0 97.5 50" fill="none" xmlns="http://www.w3.org/2000/svg">
<g id="Group 1063">
<circle id="Ellipse 71" opacity="0.4" cx="6" cy="6" r="6" transform="matrix(1 0 0 -1 85.5 50)" fill="var(--fill-0, #F3FF47)"/>
<path id="Vector 930" d="M0.5 44H0V44.5H0.5V44ZM88.8333 44C88.8333 45.4728 90.0272 46.6667 91.5 46.6667C92.9728 46.6667 94.1667 45.4728 94.1667 44C94.1667 42.5272 92.9728 41.3333 91.5 41.3333C90.0272 41.3333 88.8333 42.5272 88.8333 44ZM0.5 0H0V1H0.5H1V0H0.5ZM0.5 3H0V5H0.5H1V3H0.5ZM0.5 7H0V9H0.5H1V7H0.5ZM0.5 11H0V13H0.5H1V11H0.5ZM0.5 15H0V17H0.5H1V15H0.5ZM0.5 19H0V21H0.5H1V19H0.5ZM0.5 23H0V25H0.5H1V23H0.5ZM0.5 27H0V29H0.5H1V27H0.5ZM0.5 31H0V33H0.5H1V31H0.5ZM0.5 35H0V37H0.5H1V35H0.5ZM0.5 39H0V41H0.5H1V39H0.5ZM0.5 43H0V44H0.5H1V43H0.5ZM0.5 44V44.5H1.48913V44V43.5H0.5V44ZM3.46739 44V44.5H5.44565V44V43.5H3.46739V44ZM7.42391 44V44.5H9.40217V44V43.5H7.42391V44ZM11.3804 44V44.5H13.3587V44V43.5H11.3804V44ZM15.337 44V44.5H17.3152V44V43.5H15.337V44ZM19.2935 44V44.5H21.2717V44V43.5H19.2935V44ZM23.25 44V44.5H25.2283V44V43.5H23.25V44ZM27.2065 44V44.5H29.1848V44V43.5H27.2065V44ZM31.163 44V44.5H33.1413V44V43.5H31.163V44ZM35.1196 44V44.5H37.0978V44V43.5H35.1196V44ZM39.0761 44V44.5H41.0543V44V43.5H39.0761V44ZM43.0326 44V44.5H45.0109V44V43.5H43.0326V44ZM46.9891 44V44.5H48.9674V44V43.5H46.9891V44ZM50.9456 44V44.5H52.9239V44V43.5H50.9456V44ZM54.9022 44V44.5H56.8804V44V43.5H54.9022V44ZM58.8587 44V44.5H60.8369V44V43.5H58.8587V44ZM62.8152 44V44.5H64.7935V44V43.5H62.8152V44ZM66.7717 44V44.5H68.75V44V43.5H66.7717V44ZM70.7283 44V44.5H72.7065V44V43.5H70.7283V44ZM74.6848 44V44.5H76.663V44V43.5H74.6848V44ZM78.6413 44V44.5H80.6196V44V43.5H78.6413V44ZM82.5978 44V44.5H84.5761V44V43.5H82.5978V44ZM86.5544 44V44.5H88.5326V44V43.5H86.5544V44ZM90.5109 44V44.5H91.5V44V43.5H90.5109V44Z" fill="var(--stroke-0, #F3FF47)"/>
</g>
</svg>
