<svg preserveAspectRatio="none" width="100%" height="100%" overflow="visible" style="display: block;" viewBox="0 0 71.6413 82.3875" fill="none" xmlns="http://www.w3.org/2000/svg">
<g id="logo">
<path id="Subtract" fill-rule="evenodd" clip-rule="evenodd" d="M35.8206 0C55.6638 0 66.0632 4.88619 69.8907 7.21322C71.0488 7.91735 71.6413 9.19732 71.6413 10.5527V27.358C71.6413 72.542 35.8206 82.3874 35.8206 82.3874C35.8206 82.3874 0 71.9231 0 27.358V10.5527C0 9.19732 0.592436 7.91735 1.75058 7.21323C5.57809 4.88619 15.9775 0 35.8206 0Z" fill="var(--fill-0, #FEF27A)"/>
<path id="Vector" d="M36.1126 65.83C22.4566 65.83 11.3438 54.6882 11.3438 40.9896C11.3438 39.5398 11.472 38.0756 11.7213 36.6472C12.6189 31.5549 15.0409 26.9339 18.7381 23.2914C19.1512 22.8772 19.5929 22.4701 20.0559 22.0844C21.2669 21.0488 22.5777 20.1275 23.9526 19.349C23.3969 20.5132 23.1405 21.7916 23.1405 23.12C23.1405 23.5271 23.1618 23.8985 23.2046 24.2699C23.4397 26.3268 24.3087 28.2267 25.7121 29.7551C26.2036 26.9339 27.8349 24.4628 30.2498 22.9558C30.663 22.7629 31.0904 22.5415 31.5107 22.2915C31.6532 22.2058 31.7957 22.1201 31.9381 22.0273C34.2248 20.5489 36.02 18.5276 37.1954 16.1493C37.4447 15.6279 37.6584 15.1351 37.8365 14.6423C38.4064 13.0496 38.6984 11.3784 38.6984 9.6714C38.6984 9.00718 38.6557 8.35011 38.5702 7.7216C38.5061 7.18594 38.3992 6.65028 38.271 6.12891C38.8979 6.37174 39.5462 6.60029 40.1588 6.85026C47.1328 9.6714 52.3117 16.0208 53.658 23.42C53.9002 24.7199 54.0213 26.0697 54.0213 27.4339C54.0213 28.1124 53.9857 28.8052 53.9216 29.5051C53.8148 30.6478 53.6224 31.7763 53.3517 32.8476C55.1469 31.9691 56.7069 30.7478 58.0319 29.2623C59.8841 32.8333 60.8956 36.8829 60.8956 40.9754C60.8956 54.674 49.7828 65.8157 36.1268 65.8157L36.1126 65.83Z" fill="var(--fill-0, black)"/>
<path id="Subtract_2" d="M39.4254 67.6189C33.7825 67.6189 33.7825 55.9311 33.7825 55.9311C39.4254 55.9311 49.3149 53.7912 49.3149 53.7912C49.3149 53.7912 51.785 51.822 52.0893 43.9347C46.504 47.2932 45.1583 48.7094 33.7825 47.7313V42.4873C33.7825 42.4873 44.5432 40.6357 47.8486 35.6899C51.154 30.7441 44.4793 22.2461 44.4793 22.2461C43.8003 29.585 27.6329 40.7313 20.8943 34.0094C19.2097 39.0508 17.5251 60.897 29.3175 67.6189H39.4254Z" fill="var(--fill-0, #FEF27A)"/>
</g>
</svg>
