<svg preserveAspectRatio="none" width="100%" height="100%" overflow="visible" style="display: block;" viewBox="0 0 197 50" fill="none" xmlns="http://www.w3.org/2000/svg">
<g id="Group 1066">
<ellipse id="Ellipse 72" opacity="0.4" cx="25" cy="25" rx="25" ry="25" transform="rotate(180 25 25)" fill="var(--fill-0, #E0E0E0)"/>
<path id="Vector 931" d="M33 25C33 20.5817 29.4183 17 25 17C20.5817 17 17 20.5817 17 25C17 29.4183 20.5817 33 25 33C29.4183 33 33 29.4183 33 25ZM197 25V23.5L196 23.5V25V26.5L197 26.5V25ZM194 25V23.5L192 23.5V25V26.5L194 26.5V25ZM190 25V23.5L188 23.5V25V26.5L190 26.5V25ZM186 25V23.5L184 23.5V25V26.5L186 26.5V25ZM182 25V23.5L180 23.5V25V26.5L182 26.5V25ZM178 25V23.5L176 23.5V25V26.5L178 26.5V25ZM174 25V23.5L172 23.5V25V26.5L174 26.5V25ZM170 25V23.5L168 23.5V25V26.5L170 26.5V25ZM166 25V23.5L164 23.5V25V26.5L166 26.5V25ZM162 25V23.5L160 23.5V25V26.5L162 26.5V25ZM158 25V23.5L156 23.5V25V26.5L158 26.5V25ZM154 25V23.5L152 23.5V25V26.5L154 26.5V25ZM150 25V23.5L148 23.5V25V26.5L150 26.5V25ZM146 25V23.5L144 23.5V25V26.5L146 26.5V25ZM142 25V23.5L140 23.5V25V26.5L142 26.5V25ZM138 25V23.5L136 23.5V25V26.5L138 26.5V25ZM134 25V23.5L132 23.5V25V26.5L134 26.5V25ZM130 25V23.5L128 23.5V25V26.5L130 26.5V25ZM126 25V23.5L124 23.5V25V26.5L126 26.5V25ZM122 25V23.5L120 23.5V25V26.5L122 26.5V25ZM118 25V23.5L116 23.5V25V26.5L118 26.5V25ZM114 25V23.5L112 23.5V25V26.5L114 26.5V25ZM110 25V23.5L108 23.5V25V26.5L110 26.5V25ZM106 25V23.5L104 23.5V25V26.5L106 26.5V25ZM102 25V23.5L100 23.5V25V26.5L102 26.5V25ZM98 25V23.5L96 23.5V25V26.5L98 26.5V25ZM94 25V23.5L92 23.5V25V26.5L94 26.5V25ZM90 25V23.5L88 23.5V25V26.5L90 26.5V25ZM86 25V23.5L84 23.5V25V26.5L86 26.5V25ZM82 25V23.5L80 23.5V25V26.5L82 26.5V25ZM78 25V23.5L76 23.5V25V26.5L78 26.5V25ZM74 25V23.5L72 23.5V25V26.5L74 26.5V25ZM70 25V23.5L68 23.5V25V26.5L70 26.5V25ZM66 25V23.5L64 23.5V25V26.5L66 26.5V25ZM62 25V23.5L60 23.5V25V26.5L62 26.5V25ZM58 25V23.5L56 23.5V25V26.5L58 26.5V25ZM54 25V23.5L52 23.5V25V26.5L54 26.5V25ZM50 25V23.5L48 23.5V25V26.5L50 26.5V25ZM46 25V23.5L44 23.5V25V26.5L46 26.5V25ZM42 25V23.5L40 23.5V25V26.5L42 26.5V25ZM38 25V23.5L36 23.5V25V26.5L38 26.5V25ZM34 25V23.5L32 23.5V25V26.5L34 26.5V25ZM30 25V23.5L28 23.5V25V26.5L30 26.5V25ZM26 25V23.5L25 23.5V25V26.5L26 26.5V25Z" fill="url(#paint0_linear_3565_1521)"/>
</g>
<defs>
<linearGradient id="paint0_linear_3565_1521" x1="197" y1="24.5" x2="25" y2="24.5" gradientUnits="userSpaceOnUse">
<stop stop-color="white" stop-opacity="0"/>
<stop offset="1" stop-color="white"/>
</linearGradient>
</defs>
</svg>
