<svg preserveAspectRatio="none" width="100%" height="100%" overflow="visible" style="display: block;" viewBox="0 0 303.563 16" fill="none" xmlns="http://www.w3.org/2000/svg">
<path id="Vector 931" d="M287.563 8C287.563 12.4183 291.145 16 295.563 16C299.981 16 303.563 12.4183 303.563 8C303.563 3.58172 299.981 0 295.563 0C291.145 0 287.563 3.58172 287.563 8ZM0 8V9.5H0.998523V8V6.5H0V8ZM2.99557 8V9.5H4.99262V8V6.5H2.99557V8ZM6.98966 8V9.5H8.98671V8V6.5H6.98966V8ZM10.9838 8V9.5H12.9808V8V6.5H10.9838V8ZM14.9778 8V9.5H16.9749V8V6.5H14.9778V8ZM18.9719 8V9.5H20.969V8V6.5H18.9719V8ZM22.966 8V9.5H24.9631V8V6.5H22.966V8ZM26.9601 8V9.5H28.9572V8V6.5H26.9601V8ZM30.9542 8V9.5H32.9513V8V6.5H30.9542V8ZM34.9483 8V9.5H36.9454V8V6.5H34.9483V8ZM38.9424 8V9.5H40.9395V8V6.5H38.9424V8ZM42.9365 8V9.5H44.9336V8V6.5H42.9365V8ZM46.9306 8V9.5H48.9277V8V6.5H46.9306V8ZM50.9247 8V9.5H52.9217V8V6.5H50.9247V8ZM54.9188 8V9.5H56.9158V8V6.5H54.9188V8ZM58.9129 8V9.5H60.9099V8V6.5H58.9129V8ZM62.907 8V9.5H64.904V8V6.5H62.907V8ZM66.9011 8V9.5H68.8981V8V6.5H66.9011V8ZM70.8952 8V9.5H72.8922V8V6.5H70.8952V8ZM74.8893 8V9.5H76.8863V8V6.5H74.8893V8ZM78.8834 8V9.5H80.8804V8V6.5H78.8834V8ZM82.8775 8V9.5H84.8745V8V6.5H82.8775V8ZM86.8716 8V9.5H88.8686V8V6.5H86.8716V8ZM90.8657 8V9.5H92.8627V8V6.5H90.8657V8ZM94.8597 8V9.5H96.8568V8V6.5H94.8597V8ZM98.8538 8V9.5H100.851V8V6.5H98.8538V8ZM102.848 8V9.5H104.845V8V6.5H102.848V8ZM106.842 8V9.5H108.839V8V6.5H106.842V8ZM110.836 8V9.5H112.833V8V6.5H110.836V8ZM114.83 8V9.5H116.827V8V6.5H114.83V8ZM118.824 8V9.5H120.821V8V6.5H118.824V8ZM122.818 8V9.5H124.815V8V6.5H122.818V8ZM126.812 8V9.5H128.81V8V6.5H126.812V8ZM130.807 8V9.5H132.804V8V6.5H130.807V8ZM134.801 8V9.5H136.798V8V6.5H134.801V8ZM138.795 8V9.5H140.792V8V6.5H138.795V8ZM142.789 8V9.5H144.786V8V6.5H142.789V8ZM146.783 8V9.5H148.78V8V6.5H146.783V8ZM150.777 8V9.5H152.774V8V6.5H150.777V8ZM154.771 8V9.5H156.768V8V6.5H154.771V8ZM158.765 8V9.5H160.762V8V6.5H158.765V8ZM162.759 8V9.5H164.756V8V6.5H162.759V8ZM166.753 8V9.5H168.75V8V6.5H166.753V8ZM170.747 8V9.5H172.744V8V6.5H170.747V8ZM174.741 8V9.5H176.738V8V6.5H174.741V8ZM178.736 8V9.5H180.733V8V6.5H178.736V8ZM182.73 8V9.5H184.727V8V6.5H182.73V8ZM186.724 8V9.5H188.721V8V6.5H186.724V8ZM190.718 8V9.5H192.715V8V6.5H190.718V8ZM194.712 8V9.5H196.709V8V6.5H194.712V8ZM198.706 8V9.5H200.703V8V6.5H198.706V8ZM202.7 8V9.5H204.697V8V6.5H202.7V8ZM206.694 8V9.5H208.691V8V6.5H206.694V8ZM210.688 8V9.5H212.685V8V6.5H210.688V8ZM214.682 8V9.5H216.679V8V6.5H214.682V8ZM218.676 8V9.5H220.673V8V6.5H218.676V8ZM222.67 8V9.5H224.667V8V6.5H222.67V8ZM226.664 8V9.5H228.662V8V6.5H226.664V8ZM230.659 8V9.5H232.656V8V6.5H230.659V8ZM234.653 8V9.5H236.65V8V6.5H234.653V8ZM238.647 8V9.5H240.644V8V6.5H238.647V8ZM242.641 8V9.5H244.638V8V6.5H242.641V8ZM246.635 8V9.5H248.632V8V6.5H246.635V8ZM250.629 8V9.5H252.626V8V6.5H250.629V8ZM254.623 8V9.5H256.62V8V6.5H254.623V8ZM258.617 8V9.5H260.614V8V6.5H258.617V8ZM262.611 8V9.5H264.608V8V6.5H262.611V8ZM266.605 8V9.5H268.602V8V6.5H266.605V8ZM270.599 8V9.5H272.596V8V6.5H270.599V8ZM274.593 8V9.5H276.59V8V6.5H274.593V8ZM278.588 8V9.5H280.585V8V6.5H278.588V8ZM282.582 8V9.5H284.579V8V6.5H282.582V8ZM286.576 8V9.5H288.573V8V6.5H286.576V8ZM290.57 8V9.5H292.567V8V6.5H290.57V8ZM294.564 8V9.5H295.563V8V6.5H294.564V8Z" fill="var(--stroke-0, #F3FF47)"/>
</svg>
