<svg preserveAspectRatio="none" width="100%" height="100%" overflow="visible" style="display: block;" viewBox="0 0 48 48" fill="none" xmlns="http://www.w3.org/2000/svg">
<g id="logo">
<path id="Subtract" fill-rule="evenodd" clip-rule="evenodd" d="M23.7827 4C34.2946 4.00005 39.3478 6.82448 40.7534 7.77734C41.03 7.96483 41.1733 8.27915 41.1733 8.61328V17.2822C41.1733 39.1689 23.8627 43.9779 23.7827 44C23.7827 44 6.39111 38.9191 6.39111 17.2822V8.61328C6.39111 8.27924 6.5346 7.96485 6.81104 7.77734C8.21665 6.8245 13.2705 4 23.7827 4ZM24.9712 6.97168C25.0334 7.22481 25.0856 7.48505 25.1167 7.74512C25.1582 8.05015 25.1792 8.36905 25.1792 8.69141C25.1792 9.52016 25.0369 10.3322 24.7603 11.1055C24.6738 11.3446 24.5697 11.5839 24.4487 11.8369C23.8781 12.9914 23.007 13.9727 21.897 14.6904C21.8278 14.7355 21.7581 14.7768 21.689 14.8184C21.4849 14.9397 21.2773 15.048 21.0767 15.1416C19.9044 15.8733 19.1121 17.0729 18.8735 18.4424C18.1923 17.7004 17.7709 16.7779 17.6567 15.7793C17.636 15.599 17.6255 15.4184 17.6255 15.2207C17.6255 14.5759 17.7504 13.9557 18.02 13.3906C17.3525 13.7686 16.7154 14.215 16.1274 14.7178C15.9026 14.905 15.6884 15.1036 15.4878 15.3047C13.6929 17.0731 12.5173 19.3168 12.0815 21.7891C11.9606 22.4823 11.898 23.1928 11.8979 23.8965C11.8979 28.451 14.4286 32.423 18.1528 34.4746C15.1915 30.0472 15.8624 22.5243 16.5347 20.5117C19.8064 23.775 27.6562 18.3629 27.9858 14.7998C27.9858 14.7998 31.2263 18.9259 29.6216 21.3271C28.0239 23.7177 22.8387 24.619 22.7925 24.627V27.1738C28.3152 27.6487 28.9686 26.9606 31.6802 25.3301C31.5336 29.129 30.3523 30.1 30.3335 30.1152C30.3335 30.1152 25.5322 31.1542 22.7925 31.1543C22.7925 31.1543 22.7926 34.3556 23.9536 35.9492C30.5731 35.9366 35.9556 30.5327 35.9556 23.8896C35.9555 21.9029 35.4651 19.9368 34.5659 18.2031C33.9226 18.9244 33.165 19.5178 32.2935 19.9443C32.4249 19.4243 32.5179 18.876 32.5698 18.3213C32.601 17.9815 32.6187 17.6448 32.6187 17.3154C32.6186 16.6531 32.5595 15.9973 32.4419 15.3662C31.7881 11.7741 29.2738 8.69196 25.8882 7.32227C25.5907 7.2009 25.2755 7.08958 24.9712 6.97168Z" fill="var(--fill-0, #1A1A1A)"/>
</g>
</svg>
