<svg preserveAspectRatio="none" width="100%" height="100%" overflow="visible" style="display: block;" viewBox="0 0 311.885 266.473" fill="none" xmlns="http://www.w3.org/2000/svg">
<path id="line" d="M308.182 265.453C308.178 266.012 308.628 266.469 309.188 266.473C309.747 266.477 310.204 266.026 310.208 265.467L309.195 265.46L308.182 265.453ZM0.296703 6.74343C-0.0989009 7.13904 -0.0989008 7.78044 0.296703 8.17604L6.74343 14.6228C7.13904 15.0184 7.78044 15.0184 8.17604 14.6228C8.57164 14.2272 8.57164 13.5858 8.17604 13.1902L2.44561 7.45974L8.17604 1.72931C8.57164 1.33371 8.57164 0.692306 8.17604 0.296702C7.78044 -0.0989008 7.13904 -0.0989008 6.74343 0.296702L0.296703 6.74343ZM310.871 27.6007L311.884 27.6078L310.871 27.6007ZM1.01301 7.45974L1.01301 8.47274L3.02591 8.47274L3.02591 7.45974V6.44673L1.01301 6.44673L1.01301 7.45974ZM7.05173 7.45974L7.05173 8.47274L11.0775 8.47274V7.45974L11.0775 6.44673L7.05173 6.44673V7.45974ZM15.1034 7.45974V8.47274L19.1292 8.47274V7.45974V6.44673L15.1034 6.44673V7.45974ZM23.155 7.45973V8.47274L27.1808 8.47274V7.45973V6.44673L23.155 6.44673V7.45973ZM31.2066 7.45973V8.47274L35.2324 8.47274V7.45973V6.44673L31.2066 6.44673V7.45973ZM39.2582 7.45973V8.47274L43.2841 8.47274V7.45973V6.44673L39.2582 6.44673V7.45973ZM47.3099 7.45973V8.47274L51.3357 8.47274V7.45973V6.44673L47.3099 6.44673V7.45973ZM55.3615 7.45973V8.47274L59.3873 8.47274V7.45973V6.44673L55.3615 6.44673V7.45973ZM63.4131 7.45973V8.47274L67.4389 8.47274V7.45973V6.44672L63.4131 6.44673V7.45973ZM71.4647 7.45973V8.47274L75.4906 8.47274V7.45973V6.44672L71.4647 6.44672V7.45973ZM79.5164 7.45973V8.47274L83.5422 8.47274V7.45973V6.44672L79.5164 6.44672V7.45973ZM87.568 7.45973V8.47273L91.5938 8.47273V7.45973V6.44672L87.568 6.44672V7.45973ZM95.6196 7.45973V8.47273L99.6454 8.47273V7.45973V6.44672L95.6196 6.44672V7.45973ZM103.671 7.45973V8.47273L107.697 8.47273V7.45973V6.44672L103.671 6.44672V7.45973ZM111.723 7.45973V8.47273L115.749 8.47273V7.45973V6.44672L111.723 6.44672V7.45973ZM119.774 7.45973V8.47273L123.8 8.47273V7.45973V6.44672L119.774 6.44672V7.45973ZM127.826 7.45972V8.47273L131.852 8.47273V7.45972V6.44672L127.826 6.44672V7.45972ZM135.878 7.45972V8.47273L139.904 8.47273V7.45972V6.44672L135.878 6.44672V7.45972ZM143.929 7.45972V8.47273L147.955 8.47273V7.45972V6.44672L143.929 6.44672V7.45972ZM151.981 7.45972V8.47273L156.007 8.47273V7.45972V6.44672L151.981 6.44672V7.45972ZM160.033 7.45972V8.47273L164.058 8.47273V7.45972V6.44672L160.033 6.44672V7.45972ZM168.084 7.45972V8.47273L172.11 8.47273V7.45972V6.44671L168.084 6.44671V7.45972ZM176.136 7.45972V8.47273L180.162 8.47273L180.162 7.45972V6.44671L176.136 6.44671V7.45972ZM184.188 7.45972V8.47273L188.213 8.47273V7.45972V6.44671L184.188 6.44671V7.45972ZM192.239 7.45972V8.47272L196.265 8.47272V7.45972V6.44671L192.239 6.44671V7.45972ZM200.291 7.45972V8.47272L204.317 8.47272V7.45972V6.44671L200.291 6.44671V7.45972ZM208.342 7.45972V8.47272L212.368 8.47272V7.45972V6.44671L208.342 6.44671V7.45972ZM216.394 7.45972V8.47272L220.42 8.47272V7.45972V6.44671L216.394 6.44671V7.45972ZM224.446 7.45972V8.47272L228.472 8.47272V7.45972V6.44671L224.446 6.44671V7.45972ZM232.497 7.45971V8.47272L236.523 8.47272V7.45971V6.44671L232.497 6.44671V7.45971ZM240.549 7.45971V8.47272L244.575 8.47272V7.45971V6.44671L240.549 6.44671V7.45971ZM248.601 7.45971V8.47272L252.626 8.47272V7.45971V6.44671L248.601 6.44671V7.45971ZM256.652 7.45971V8.47272L260.678 8.47272V7.45971V6.44671L256.652 6.44671V7.45971ZM264.704 7.45971V8.47272L268.73 8.47272V7.45971V6.44671L264.704 6.44671V7.45971ZM272.756 7.45971V8.47272L276.781 8.47272V7.45971V6.4467L272.756 6.4467V7.45971ZM280.807 7.45971V8.47272L284.833 8.47272V7.45971V6.4467L280.807 6.4467V7.45971ZM288.859 7.45971V8.47272L290.872 8.47272V7.45971V6.4467L288.859 6.4467V7.45971ZM290.872 7.45971V8.47272C291.503 8.47272 292.128 8.50353 292.743 8.56367L292.841 7.55546L292.94 6.54726C292.259 6.48073 291.569 6.4467 290.872 6.4467V7.45971ZM296.705 8.32353L296.41 9.29263C297.615 9.65951 298.769 10.1431 299.86 10.7304L300.34 9.83844L300.82 8.94652C299.613 8.29643 298.335 7.76082 297 7.35443L296.705 8.32353ZM303.607 12.0381L302.962 12.8188C303.925 13.615 304.808 14.5044 305.597 15.473L306.383 14.833L307.168 14.193C306.295 13.1217 305.318 12.1381 304.253 11.2574L303.607 12.0381ZM308.559 18.1156L307.664 18.5896C308.243 19.6843 308.719 20.8421 309.077 22.0499L310.048 21.7617L311.02 21.4735C310.623 20.1357 310.096 18.8535 309.454 17.6417L308.559 18.1156ZM310.789 25.6301L309.78 25.7216C309.836 26.3373 309.863 26.9617 309.858 27.5935L310.871 27.6007L311.884 27.6078C311.889 26.9101 311.86 26.2199 311.798 25.5387L310.789 25.6301ZM310.871 27.6007L309.858 27.5935L309.844 29.644L310.857 29.6512L311.87 29.6583L311.884 27.6078L310.871 27.6007ZM310.828 33.7522L309.815 33.745L309.786 37.8461L310.799 37.8532L311.812 37.8603L311.841 33.7593L310.828 33.7522ZM310.77 41.9542L309.757 41.9471L309.728 46.0481L310.741 46.0552L311.754 46.0624L311.783 41.9614L310.77 41.9542ZM310.712 50.1563L309.699 50.1491L309.67 54.2501L310.683 54.2573L311.696 54.2644L311.725 50.1634L310.712 50.1563ZM310.654 58.3583L309.641 58.3511L309.612 62.4522L310.625 62.4593L311.638 62.4664L311.667 58.3654L310.654 58.3583ZM310.597 66.5603L309.584 66.5532L309.555 70.6542L310.568 70.6613L311.581 70.6685L311.61 66.5675L310.597 66.5603ZM310.539 74.7624L309.526 74.7552L309.497 78.8562L310.51 78.8634L311.523 78.8705L311.552 74.7695L310.539 74.7624ZM310.481 82.9644L309.468 82.9573L309.439 87.0583L310.452 87.0654L311.465 87.0726L311.494 82.9715L310.481 82.9644ZM310.423 91.1664L309.41 91.1593L309.381 95.2603L310.394 95.2674L311.407 95.2746L311.436 91.1736L310.423 91.1664ZM310.365 99.3685L309.352 99.3613L309.323 103.462L310.336 103.469L311.349 103.477L311.378 99.3756L310.365 99.3685ZM310.308 107.571L309.295 107.563L309.266 111.664L310.279 111.672L311.292 111.679L311.321 107.578L310.308 107.571ZM310.25 115.773L309.237 115.765L309.208 119.866L310.221 119.874L311.234 119.881L311.263 115.78L310.25 115.773ZM310.192 123.975L309.179 123.967L309.15 128.068L310.163 128.076L311.176 128.083L311.205 123.982L310.192 123.975ZM310.134 132.177L309.121 132.169L309.092 136.27L310.105 136.278L311.118 136.285L311.147 132.184L310.134 132.177ZM310.076 140.379L309.063 140.372L309.034 144.473L310.047 144.48L311.06 144.487L311.089 140.386L310.076 140.379ZM310.019 148.581L309.006 148.574L308.977 152.675L309.99 152.682L311.003 152.689L311.031 148.588L310.019 148.581ZM309.961 156.783L308.948 156.776L308.919 160.877L309.932 160.884L310.945 160.891L310.974 156.79L309.961 156.783ZM309.903 164.985L308.89 164.978L308.861 169.079L309.874 169.086L310.887 169.093L310.916 164.992L309.903 164.985ZM309.845 173.187L308.832 173.18L308.803 177.281L309.816 177.288L310.829 177.295L310.858 173.194L309.845 173.187ZM309.787 181.389L308.774 181.382L308.745 185.483L309.758 185.49L310.771 185.497L310.8 181.396L309.787 181.389ZM309.729 189.591L308.717 189.584L308.688 193.685L309.701 193.692L310.714 193.699L310.742 189.598L309.729 189.591ZM309.672 197.793L308.659 197.786L308.63 201.887L309.643 201.894L310.656 201.901L310.685 197.8L309.672 197.793ZM309.614 205.995L308.601 205.988L308.572 210.089L309.585 210.096L310.598 210.103L310.627 206.002L309.614 205.995ZM309.556 214.197L308.543 214.19L308.514 218.291L309.527 218.298L310.54 218.305L310.569 214.204L309.556 214.197ZM309.498 222.399L308.485 222.392L308.456 226.493L309.469 226.5L310.482 226.507L310.511 222.406L309.498 222.399ZM309.44 230.601L308.428 230.594L308.399 234.695L309.412 234.702L310.425 234.709L310.453 230.608L309.44 230.601ZM309.383 238.803L308.37 238.796L308.341 242.897L309.354 242.904L310.367 242.911L310.396 238.81L309.383 238.803ZM309.325 247.005L308.312 246.998L308.283 251.099L309.296 251.106L310.309 251.113L310.338 247.012L309.325 247.005ZM309.267 255.207L308.254 255.2L308.225 259.301L309.238 259.308L310.251 259.315L310.28 255.214L309.267 255.207ZM309.209 263.409L308.196 263.402L308.182 265.453L309.195 265.46L310.208 265.467L310.222 263.416L309.209 263.409Z" fill="var(--stroke-0, #0B0B0B)"/>
</svg>
