<svg preserveAspectRatio="none" width="100%" height="100%" overflow="visible" style="display: block;" viewBox="0 0 160 50" fill="none" xmlns="http://www.w3.org/2000/svg">
<g id="line">
<ellipse id="Ellipse 72" opacity="0.4" cx="25" cy="25" rx="25" ry="25" transform="rotate(180 25 25)" fill="var(--fill-0, #F3FF47)"/>
<path id="Vector 931" d="M33 25C33 20.5818 29.4183 17 25 17C20.5817 17 17 20.5818 17 25C17 29.4183 20.5817 33 25 33C29.4183 33 33 29.4183 33 25ZM160 25L160 23.5L159.007 23.5L159.007 25L159.007 26.5L160 26.5L160 25ZM157.022 25L157.022 23.5L155.037 23.5L155.037 25L155.037 26.5L157.022 26.5L157.022 25ZM153.051 25L153.051 23.5L151.066 23.5L151.066 25L151.066 26.5L153.051 26.5L153.051 25ZM149.081 25L149.081 23.5L147.096 23.5L147.096 25L147.096 26.5L149.081 26.5L149.081 25ZM145.11 25L145.11 23.5L143.125 23.5L143.125 25L143.125 26.5L145.11 26.5L145.11 25ZM141.14 25L141.14 23.5L139.154 23.5L139.154 25L139.154 26.5L141.14 26.5L141.14 25ZM137.169 25L137.169 23.5L135.184 23.5L135.184 25L135.184 26.5L137.169 26.5L137.169 25ZM133.199 25L133.199 23.5L131.213 23.5L131.213 25L131.213 26.5L133.199 26.5L133.199 25ZM129.228 25L129.228 23.5L127.243 23.5L127.243 25L127.243 26.5L129.228 26.5L129.228 25ZM125.257 25L125.257 23.5L123.272 23.5L123.272 25L123.272 26.5L125.257 26.5L125.257 25ZM121.287 25L121.287 23.5L119.301 23.5L119.301 25L119.301 26.5L121.287 26.5L121.287 25ZM117.316 25L117.316 23.5L115.331 23.5L115.331 25L115.331 26.5L117.316 26.5L117.316 25ZM113.346 25L113.346 23.5L111.36 23.5L111.36 25L111.36 26.5L113.346 26.5L113.346 25ZM109.375 25L109.375 23.5L107.39 23.5L107.39 25L107.39 26.5L109.375 26.5L109.375 25ZM105.404 25L105.404 23.5L103.419 23.5L103.419 25L103.419 26.5L105.404 26.5L105.404 25ZM101.434 25L101.434 23.5L99.4485 23.5L99.4485 25L99.4485 26.5L101.434 26.5L101.434 25ZM97.4632 25L97.4632 23.5L95.4779 23.5L95.4779 25L95.4779 26.5L97.4632 26.5L97.4632 25ZM93.4926 25L93.4926 23.5L91.5074 23.5L91.5074 25L91.5074 26.5L93.4926 26.5L93.4926 25ZM89.5221 25L89.5221 23.5L87.5368 23.5L87.5368 25L87.5368 26.5L89.5221 26.5L89.5221 25ZM85.5515 25L85.5515 23.5L83.5662 23.5L83.5662 25L83.5662 26.5L85.5515 26.5L85.5515 25ZM81.5809 25L81.5809 23.5L79.5956 23.5L79.5956 25L79.5956 26.5L81.5809 26.5L81.5809 25ZM77.6103 25L77.6103 23.5L75.625 23.5L75.625 25L75.625 26.5L77.6103 26.5L77.6103 25ZM73.6397 25L73.6397 23.5L71.6544 23.5L71.6544 25L71.6544 26.5L73.6397 26.5L73.6397 25ZM69.6692 25L69.6692 23.5L67.6839 23.5L67.6839 25L67.6839 26.5L69.6692 26.5L69.6692 25ZM65.6986 25L65.6986 23.5L63.7133 23.5L63.7133 25L63.7133 26.5L65.6986 26.5L65.6986 25ZM61.728 25L61.728 23.5L59.7427 23.5L59.7427 25L59.7427 26.5L61.728 26.5L61.728 25ZM57.7574 25L57.7574 23.5L55.7721 23.5L55.7721 25L55.7721 26.5L57.7574 26.5L57.7574 25ZM53.7868 25L53.7868 23.5L51.8015 23.5L51.8015 25L51.8015 26.5L53.7868 26.5L53.7868 25ZM49.8163 25L49.8163 23.5L47.831 23.5L47.831 25L47.831 26.5L49.8163 26.5L49.8163 25ZM45.8457 25L45.8457 23.5L43.8604 23.5L43.8604 25L43.8604 26.5L45.8457 26.5L45.8457 25ZM41.8751 25L41.8751 23.5L39.8898 23.5L39.8898 25L39.8898 26.5L41.8751 26.5L41.8751 25ZM37.9045 25L37.9045 23.5L35.9192 23.5L35.9192 25L35.9192 26.5L37.9045 26.5L37.9045 25ZM33.9339 25L33.9339 23.5L31.9486 23.5L31.9486 25L31.9486 26.5L33.9339 26.5L33.9339 25ZM29.9633 25L29.9633 23.5L27.9781 23.5L27.9781 25L27.9781 26.5L29.9633 26.5L29.9633 25ZM25.9928 25L25.9928 23.5L25 23.5L25 25L25 26.5L25.9928 26.5L25.9928 25Z" fill="url(#paint0_linear_3565_1428)"/>
</g>
<defs>
<linearGradient id="paint0_linear_3565_1428" x1="160" y1="24.5" x2="25" y2="24.5" gradientUnits="userSpaceOnUse">
<stop stop-color="#F3FF47" stop-opacity="0"/>
<stop offset="1" stop-color="#F3FF47"/>
</linearGradient>
</defs>
</svg>
