<svg preserveAspectRatio="none" width="100%" height="100%" overflow="visible" style="display: block;" viewBox="0 0 140 140" fill="none" xmlns="http://www.w3.org/2000/svg">
<g id="logo">
<path id="Subtract" d="M74.924 17.5C75.9893 17.9126 77.0915 18.301 78.1326 18.7258C89.9834 23.5197 98.7835 34.3094 101.071 46.8828C101.483 49.0916 101.689 51.3853 101.689 53.7033C101.689 54.8563 101.629 56.0338 101.52 57.2231C101.338 59.1647 101.011 61.0821 100.551 62.9024C103.602 61.4097 106.253 59.3349 108.504 56.8107C111.651 62.8788 113.37 69.7599 113.37 76.7139C113.37 99.9617 94.5352 118.874 71.3709 118.923C67.2979 113.35 67.2978 102.127 67.2978 102.127C76.8726 102.127 93.6416 98.5017 93.6911 98.491C93.714 98.4726 97.8904 95.1084 98.4059 81.7425C88.9149 87.4495 86.6282 89.8562 67.2978 88.1942V79.2833C67.3951 79.2665 85.5979 76.1143 91.1998 67.7325C96.8098 59.3385 85.5021 44.9225 85.4744 44.8872C84.3206 57.3582 56.8473 76.2987 45.3965 64.8762C43.0424 71.921 40.6919 98.2746 51.0733 113.769C38.0307 106.59 29.1668 92.6847 29.1668 76.7382C29.1668 74.2746 29.3849 71.7865 29.8085 69.3592C31.3338 60.706 35.4495 52.8534 41.732 46.6638C42.4341 45.9598 43.1854 45.2685 43.9722 44.6131C46.0299 42.8535 48.2569 41.2877 50.5929 39.9649C49.6489 41.9431 49.2135 44.1157 49.2135 46.373C49.2135 47.0645 49.2497 47.6954 49.3223 48.3263C49.7218 51.8216 51.1991 55.0499 53.5837 57.6471C54.4191 52.8534 57.191 48.6545 61.2945 46.0938C61.9965 45.7661 62.7232 45.3901 63.4373 44.9653C63.6794 44.8197 63.9215 44.6735 64.1636 44.5158C68.0491 42.0036 71.099 38.5689 73.0963 34.5277C73.5199 33.6419 73.8837 32.8045 74.1863 31.9672C75.1546 29.2609 75.6515 26.4205 75.6516 23.52C75.6516 22.3913 75.5778 21.2745 75.4325 20.2064C75.3236 19.2962 75.1419 18.3859 74.924 17.5Z" fill="var(--fill-0, #F3FF47)"/>
</g>
</svg>
