<svg preserveAspectRatio="none" width="100%" height="100%" overflow="visible" style="display: block;" viewBox="0 0 88 88" fill="none" xmlns="http://www.w3.org/2000/svg">
<g id="logo">
<path id="Subtract" d="M29.0949 11C29.7645 11.2594 30.4574 11.5035 31.1117 11.7705C38.5608 14.7838 44.0923 21.5659 45.5304 29.4692C45.7891 30.8576 45.9185 32.2993 45.9185 33.7564C45.9185 34.4811 45.8807 35.2212 45.8122 35.9688C45.6981 37.1893 45.4926 38.3945 45.2035 39.5387C47.1208 38.6004 48.7873 37.2962 50.2025 35.7096C52.1807 39.5238 53.261 43.8491 53.2611 48.2202C53.2611 62.833 41.422 74.721 26.8616 74.7517C24.3014 71.2487 24.3013 64.1943 24.3013 64.1943C30.3198 64.1942 40.8603 61.9153 40.8914 61.9086C40.9058 61.8971 43.5309 59.7824 43.855 51.381C37.8892 54.9683 36.4518 56.481 24.3013 55.4363V49.8352C24.3625 49.8246 35.8042 47.8432 39.3254 42.5747C42.8517 37.2985 35.744 28.237 35.7266 28.2148C35.0013 36.0537 17.7324 47.9592 10.5348 40.7793C9.05506 45.2075 7.57759 61.7726 14.103 71.5119C5.90483 66.9997 0.333252 58.259 0.333252 48.2354C0.333259 46.6869 0.470307 45.1229 0.736611 43.5972C1.69534 38.158 4.2824 33.2221 8.23136 29.3315C8.67268 28.889 9.14492 28.4545 9.6395 28.0425C10.9329 26.9365 12.3327 25.9523 13.8011 25.1208C13.2077 26.3642 12.934 27.7299 12.934 29.1487C12.934 29.5834 12.9568 29.98 13.0024 30.3765C13.2535 32.5736 14.1821 34.6028 15.681 36.2353C16.2061 33.2221 17.9485 30.5828 20.5278 28.9732C20.9691 28.7673 21.4258 28.5309 21.8747 28.2639C22.0269 28.1724 22.1791 28.0805 22.3312 27.9813C24.7735 26.4023 26.6906 24.2433 27.946 21.7031C28.2123 21.1463 28.441 20.62 28.6312 20.0937C29.2399 18.3926 29.5522 16.6072 29.5522 14.784C29.5522 14.0745 29.5059 13.3725 29.4146 12.7012C29.3461 12.1291 29.2319 11.5569 29.0949 11Z" fill="var(--fill-0, #F3FF47)"/>
</g>
</svg>
